/* XPM */
static char *xpm_[] = {
/* columns rows colors chars-per-pixel */
"64 64 245 2 ",
"   c #020000",
".  c #0B0000",
"X  c #0D0208",
"o  c #0C0B0B",
"O  c #130101",
"+  c #1C0101",
"@  c #120901",
"#  c #1C0902",
"$  c #12020A",
"%  c #1C030B",
"&  c #140C09",
"*  c #1A0416",
"=  c #141314",
"-  c #1B191A",
";  c #191718",
":  c #230101",
">  c #2B0101",
",  c #230902",
"<  c #2C0A02",
"1  c #24020A",
"2  c #2B010A",
"3  c #230C0A",
"4  c #2B0C09",
"5  c #330202",
"6  c #3B0101",
"7  c #330A04",
"8  c #3B0B02",
"9  c #320209",
"0  c #340C0C",
"q  c #3B0B0C",
"w  c #3E000F",
"e  c #270311",
"r  c #320010",
"t  c #3F1111",
"y  c #2C1404",
"u  c #2A0021",
"i  c #272727",
"p  c #3A3A3A",
"a  c #430201",
"s  c #4B0201",
"d  c #420B03",
"f  c #4B0B02",
"g  c #4A030B",
"h  c #490F09",
"j  c #420F0B",
"k  c #540301",
"l  c #5B0500",
"z  c #530B01",
"x  c #530C0A",
"c  c #590907",
"v  c #441204",
"b  c #4C1304",
"n  c #42100C",
"m  c #4A1209",
"M  c #541302",
"N  c #5C1203",
"B  c #571A06",
"V  c #4B1415",
"C  c #591610",
"Z  c #480B13",
"A  c #630203",
"S  c #670A03",
"D  c #750301",
"F  c #7A0B06",
"G  c #641502",
"H  c #6B1B01",
"J  c #681706",
"K  c #751C02",
"L  c #7B1B01",
"P  c #771805",
"I  c #6A1010",
"U  c #791E12",
"Y  c #4D200B",
"T  c #56270F",
"R  c #692404",
"E  c #7B2202",
"W  c #722607",
"Q  c #6F2210",
"!  c #793003",
"~  c #454545",
"^  c #4A4A4A",
"/  c #860901",
"(  c #891E05",
")  c #971505",
"_  c #9B1B12",
"`  c #A11C04",
"'  c #B91D07",
"]  c #842301",
"[  c #892607",
"{  c #932B00",
"}  c #992607",
"|  c #873203",
" . c #913C00",
".. c #852B1A",
"X. c #922812",
"o. c #A32300",
"O. c #A52B03",
"+. c #AA2F06",
"@. c #B22B00",
"#. c #BC2C02",
"$. c #B92508",
"%. c #AC310C",
"&. c #A43A0B",
"*. c #A83708",
"=. c #BC3402",
"-. c #BB3806",
";. c #BF2911",
":. c #A53A12",
">. c #BA3A15",
",. c #AD2912",
"<. c #C82B06",
"1. c #D92A00",
"2. c #CA3401",
"3. c #C63905",
"4. c #D63704",
"5. c #D12D12",
"6. c #CC391A",
"7. c #E2340D",
"8. c #9B471B",
"9. c #A64806",
"0. c #B94505",
"q. c #B9551A",
"w. c #B54B12",
"e. c #9C6411",
"r. c #B17A15",
"t. c #B84D21",
"y. c #C84607",
"u. c #DB4905",
"i. c #C95208",
"p. c #DA5806",
"a. c #C84612",
"s. c #C75A19",
"d. c #D35A14",
"f. c #DD5A12",
"g. c #ED4C02",
"h. c #E44209",
"j. c #ED5503",
"k. c #E75807",
"l. c #F45303",
"z. c #F45D02",
"x. c #FA5805",
"c. c #EC4616",
"v. c #E45A19",
"b. c #F35A16",
"n. c #F44D07",
"m. c #DA681C",
"M. c #D96116",
"N. c #DD7B1C",
"B. c #D36B0E",
"V. c #EF6A04",
"C. c #EC640B",
"Z. c #E66907",
"A. c #F26303",
"S. c #F96C04",
"D. c #F4640C",
"F. c #FD6D0C",
"G. c #F66808",
"H. c #EC7306",
"J. c #FD7203",
"K. c #FB740B",
"L. c #F87909",
"P. c #E66816",
"I. c #FF6E10",
"U. c #EB781B",
"Y. c #FD7412",
"T. c #F77B17",
"R. c #C84920",
"E. c #EF5E25",
"W. c #E57727",
"Q. c #FB7A25",
"!. c #EC8500",
"~. c #FA8304",
"^. c #FC8C03",
"/. c #F68709",
"(. c #F6950A",
"). c #E9851A",
"_. c #FE8C13",
"`. c #F3801D",
"'. c #F98817",
"]. c #ED981A",
"[. c #FC9B13",
"{. c #F79818",
"}. c #E7A616",
"|. c #FBA315",
" X c #FFA61A",
".X c #F3AC1C",
"XX c #FDAC1D",
"oX c #F4A01C",
"OX c #F4B61D",
"+X c #DF982E",
"@X c #DA8930",
"#X c #EB8A25",
"$X c #FD8C25",
"%X c #F9882A",
"&X c #EC9C2B",
"*X c #FD9C23",
"=X c #F79625",
"-X c #FF8134",
";X c #EF9132",
":X c #F59A32",
">X c #EE8E37",
",X c #EEAB26",
"<X c #EDA72E",
"1X c #FDA324",
"2X c #F4A42B",
"3X c #FEA32B",
"4X c #FFAB2B",
"5X c #F7AB27",
"6X c #EEB32B",
"7X c #EBB128",
"8X c #FDB422",
"9X c #FEBD23",
"0X c #FCB52B",
"qX c #FEBA2C",
"wX c #F4BB27",
"eX c #FFAC33",
"rX c #F8A937",
"tX c #FDB434",
"yX c #FCB937",
"uX c #FFCC1C",
"iX c #FDC319",
"pX c #E9C21F",
"aX c #EAC32C",
"sX c #F5C221",
"dX c #FEC22C",
"fX c #F5CA2C",
"gX c #FBC624",
"hX c #EFD527",
"jX c #FFD52C",
"kX c #FBD929",
"lX c #FEC434",
"zX c #FDCD33",
"xX c #F4C439",
"cX c #FEC43C",
"vX c #FACA3B",
"bX c #F3CB35",
"nX c #FFD43A",
"mX c #FBD931",
"MX c #FFE42D",
"NX c #F8E638",
"BX c #EA9042",
"VX c #EDBB40",
"CX c #F6CB44",
"ZX c #F7D844",
"AX c #FAF349",
/* pixels */
". . . . . . . . . .                                                                                                             ",
". . . . . . . . . . .                                                                                                           ",
". . . . . . . . . . .                                                                                                           ",
". . . . . . . . . . . .                                                                                                         ",
". . . . . . . . . . . . . .                                                                                                     ",
". . . . . . . . . . . . . . . .                                                             . . . .                             ",
". . . . . . . . . . . . . . . .       . . . . .     . . . . . . . . . . . . . .       . . . . . . . . . . .                     ",
". . . . . . . . . . . . . . . . . . . . . . . . . . . . . . . . . . . . . . . . . . . . . . . . . . . . . . . .                 ",
". . . . . . O O O . . . . . . . X .   $ O   . . $ X O   O . . . . O . . . . . . O . + O $ O . $ + O + O @ X . O . . .           ",
". . . . . . . . . . . . . . . O . : + . X % O O . + +   $ # O % O O O O O O O O O . O O $ + + + , + + O + % . O . . .           ",
". . . . . . . . . . . O O O O O + O + + + % O V 8 O . # + + 2 O + + + + + O O + . $ : 1 + + 1 > O 9 : e + . + O O O . .         ",
"    . . . . . . . . O O O O + + + $ e < + 1 : v P : * > + % 1 O + + + + + + + + > : + + > 5 : : : + + : > : : o O O . . .       ",
"      . . . . . . O O O + + + + : < : 5 > : : + J U 2 < : + O + : : + + + + + + : : : : > > : > 6 : 5 : + 2 + : + + O . .       ",
"      . . . . . O O O + + : : : 7 W f 8 V > , % W L 7 8 q : + : : : + + : : : : > + : : 1 : 5 > 6 b : 5 8 : 1 > + + O . . .     ",
"    . . . . . . O O + + : : : : + &.W d B : 6 a [ { b H n O 9 + : : : : : : > 7 [ d : > 1 5 N + Z b + 8.%.M u @ + + O . . .     ",
"    . . . . . O O + + : : : : : 1 { R H ! $ x -.[ p.] | : + : % : : : : : : > q -.[ E K 0 : Q 2 G 0 J s.A s : > + O O . . .     ",
"        . . O O O + : : : : > > G u.*.<.2.D ` 1.2.k.i.U < , + : : > : : > # + R 0.4.g.D./ F =.P ) o.D.u.d 2 > 2 + + O . . . . . ",
"        . . O O + + : : : : > 7 a.vXxX1X=XU.Q.+X2Xz.0.E 9.: w O + : : : > : > U ;XqXXX{.#XQ.[.-X$XxXcXv.S a : + + + O . . . . . ",
"        . . O O O + + : : : > q d.AXnXNXmX/.v.T.3XY.=.X.W : > 2 + : : : > : 5 I =X*X;XyX8XH.(.}.sXnX3X3.l < : : + + O . . . . . ",
"        . . . O O + : : : : > 7 S *.<.u.{.9XV.K._.dXA.&.+ : % : : : : : > : : a H / D P.gXV.F. Xz.y.o.L 0 : > % + O O . . . . . ",
"        . . . O O + + : : : > > # 5 h &.l.%X|.XX_.wXfXv.r.e.y + 2 : : : > : + > , : 9 0.9X*X'.Y.;.f O : : : > * + O O . . . . . ",
"        . . . O O O + + : : > > : : + T @.P.OXL.F.S.dXI.4.w.T : + : : : : : : > > > : { '.7X3Xv.S < : 5 5 : + O O O O . . . . . ",
"        . . . . . O + + : : > > 9 2 + 5 L %XqX~.^.(.L.sX>.s r # + : : : : : > 2 1 6 & { '.0X4Xy.a : < : : % 2 : O O . . . . . . ",
"          . . . . O O + : : : > : 5 > : x ].MX{.wX8XY.gXxX} a 1 : < > : 2 : > : > # % l M.eX*Xh.l > 2 > 5 + : + O O . . . . . . ",
"    . . . . . . . . O + + : : : > : 7 + 6 U.AXwX#XlX/.D.8XvX$.E m v g > < O > : : , > < a.3XwX6.6 > > : : : : + O O . . . . . . ",
"        .   . . . O O + + : : : < 2 > O g b.kXqXK.H.ZXS.A.fX0XC.0.@.h 2 : 1 , 2 : : > : :.=XtX+.6 > : : : : + + O O . . . . . . ",
"              . . O O + + : : : + 2 > 1 N b.dX&Xn.#.N.zX^.~.iX4X#.] : + , # > > < : : 2 X.2X*X+.6 5 > > : : + O O O . . . . . . ",
"              . O O + + : : : : : : < > 5 M.jX.X7.Y D ,XjXC.g.rX%X,.: 1 : # : + : : : r &.yX*XR.a 5 > > : : + O O . . . . . . . ",
"              . O O + + : : : : 2 : : : B ).kX8X3.B 2 -.zX:Xz.z.eX'.k O 5 1 % , # > > 1 :.1XtXf.6 5 > > : : + O . . . . . . . . ",
"          . . . O O + + : : : : : > % % |  XhX$X3.B + Q 4.tX}.j.P.lXq.a , : : : 1 > > > >.2X0XZ.6 > > : : : + O . . . . . . . . ",
"      . . . . . O + + : : : : : > + : + k Q.mXT./ : : 6 P @.BXB.A.F.rX>.6 1 : > : : : z f.cX6Xf.5 > : : : : + O . . . . . . . . ",
"      . . . . O O + + : : : : : 2 % > > 5 d.lXU./ : 3 : # a _ rXB.J._.nX9.5 > : > : 2 W ~.sXrX} > : : : : : + O . . . . . . . . ",
"    . . . . O O + + + : : : : : # : 5 : 5 d.tX$X` 7 : % 1 : s t.yX(.K.|.tX;.( N 8 : # z P.6X<X2.> > > : : + + O . .         . . ",
"    . . . . O O + + + : : : : : : 1 > : x Q.5X'.) < : : : : 5 H B.CXx.l.T.fXl.y.C # < 2 -.uX0Xk.> > : : : + O O . .         . . ",
"    . . . . . O + + + : : : : : 2 : : + c T.gX].D : 2 : + + 2 8 9.%XtXL.l.[.>Xx.| + > + ..&X:X6.> > : : : + O O . .         . . ",
"    . . . . . O O + + : : : : : 2 : 1 : l `.MX1X[ < : : : : 1 + B y.1XhXV.K.:X1X@.:.y : :.8XtX] > : : : : + O . . .         . . ",
"    . . . . . O + + + : : : : : + : > > k =XmX4XO.n : : : + : , + H p.eXqX(.J.8XN.1.B a P.uXlXw.> : : : + + O . .             . ",
"    . . . . . O + + + : : : : : : : > 7 s W.fX{.2.C : + 1 : : + : C B.1.=X.XL.A.0XW...S u.eX4X<.> > : : + + O . .             . ",
"    . . . . . O + + + + : : : : > : 2 < a >.0X].2.m > : : : : > 2 0  .K 4.,X^.~.H.qXm.) Z.,XjX3.> > : : + + . .                 ",
"    . . . . . O + + + + : : : : > 2 > < g 6.&X0Xh.m : > 2 : : + + : 5 4 s =.tXbXA.Y.mXv.F.pXuXq.5 > : : + + .                   ",
"        . . . O O + + : : : : > 2 : 5 + s v.5X9X0.2 < > : 1 : : 2 : > : : k 9.CXA.Z.|.wXH.OXtX+.a : > : + O . .                 ",
"        . . O O O + + + : : : : < O 0 7 l N.8X].o.3 5 : + > # > : : > > > + b >.7XU.S.!.Y.H.8XO.z 2 > : + O . .                 ",
"        . . O O O + + + + : : : 5 5 > : F Q.XX3X4.5 : 2 2 > # > : > > > 9 % : A W.ZX{.z.k.L.zX5.J 9 > : + + . .                 ",
"        . . O O O + + + + : : : 2 1 , : L $X8XyX3.a : 2 9 2 : + : 2 > : : 5 2 1 / ;XNX_.%X/.6Xc.K 9 > : # + . .                 ",
"        . . O O O + + : + : : : 5 v , f 4.[.(.=X;.x < + , 2 > > > : 2 2 : > > # 2 $.0XaX`.^.OXc.K 5 > : + + . .                 ",
"        . . . O O + + : : : > > z | *.} x.9X|.oXE.} ! d : : 5 > > > : : : < > > : z ' yX XS.cXh.K 5 > : + + . .                 ",
"        . . O O + + + : : : > 8 } i.x.l.tX6XL.*X1XH.U.>.G 4 > : 5 5 : + 2 > > > 2 : I $.rXJ.4Xk.L 5 > : + + . .                 ",
"        . . . O + + + : : : 5 j =.T.NX6XyX2X).W.1XnXgXcX@Xk : 2 1 < : > 9 > > 9 > 2 6 F 3.=XaXk.L 5 : + + + O                   ",
"          . . . O + : : : : 5 n { s.W.m.s.q.t.%.i.s.s.m.w.M > 2 > > > > > > > > 5 + > : A U.zXu.C 5 : + O O . .                 ",
"          . . . O O + : : : > 7 h f f s 6 6 a s a g a l N 6 > > > > > > > > > > > 2 > 5 > ] 7.X.d > + + O . .                   ",
"            . . O O + + + + : : 4 < : 2 2 1 : > , 4 < > 5 > : : > > > > > > > > > 9 & > > : s 8 > + + $ . .                     ",
"            . . . O + + + : : : : > > 2 : 1 > : : : 4 2 2 : : < > : : : : : : > > : : > > 1 & : : + O O . . .                   ",
"                . O O + + + : : 2 : : : : : : : 2 2 2 : + : + + : : : : : : : : 1 : : : : > > > + $ O . . .                     ",
"                  . O O O + + : + + + : : + + + + + + O + : + + + + + + + + : : + > # O : + . % O O . . . .                     ",
"                    . . O O O + O + % + + + + % $ + # $ O + + O O O O O O O O O O & : + $ : O $ O . .                           ",
"                      . . . . O + O O $ + O O O $ O O $ X O O X . . . . . . . . O X O O . . O + . .                             ",
"                          . . . . . . . O O . O . . O . . . . . . . . . . . . . . . . . . . . . .                               ",
"                            . . . . . . . . . . . . . . . . . .     .           . . . . . . . .                                 ",
"                                    . . . . . . .   . .                             . . .     .                                 ",
"                                                                        .                                                       ",
"                                                                                                                                ",
"                                              . ~ ~ ~ p p ~ ^ ~ ~ ^ ^ p i p ~ ^ o                                               ",
"                                                - - ; = = - - - - i i ; = ; - - o                                               ",
"                                                                                                                                "
};
