/* XPM */
static char *xpm_[] = {
/* columns rows colors chars-per-pixel */
"64 64 248 2 ",
"   c #010000",
".  c #0B0201",
"X  c #04010A",
"o  c #0A0709",
"O  c #0B0A0B",
"+  c #0D0904",
"@  c #130301",
"#  c #1B0401",
"$  c #160903",
"%  c #1B0902",
"&  c #190A0A",
"*  c #140609",
"=  c #16110D",
"-  c #191617",
";  c #0C0A12",
":  c #230501",
">  c #2A0401",
",  c #250903",
"<  c #2A0B02",
"1  c #210C0D",
"2  c #2A0A08",
"3  c #20070B",
"4  c #330400",
"5  c #3D0400",
"6  c #320B02",
"7  c #3B0D02",
"8  c #370D09",
"9  c #26120B",
"0  c #351302",
"q  c #3D1204",
"w  c #3A130B",
"e  c #32160C",
"r  c #391913",
"t  c #211D1C",
"y  c #35241D",
"u  c #1E1D25",
"i  c #221F26",
"p  c #2A272A",
"a  c #3D3229",
"s  c #372B2E",
"d  c #440D00",
"f  c #4B0C00",
"g  c #550D02",
"h  c #431302",
"j  c #4B1201",
"k  c #4C1B01",
"l  c #43130B",
"z  c #531302",
"x  c #5C1401",
"c  c #541C01",
"v  c #5B1B01",
"b  c #531C0A",
"n  c #5E1A0A",
"m  c #52160C",
"M  c #501813",
"N  c #6B0E01",
"B  c #750D00",
"V  c #631501",
"C  c #621B02",
"Z  c #6B1B01",
"A  c #691808",
"S  c #731A03",
"D  c #7A1D02",
"F  c #761806",
"G  c #6B1C11",
"H  c #711915",
"J  c #592508",
"K  c #462313",
"L  c #5B2615",
"P  c #55280D",
"I  c #652200",
"U  c #692807",
"Y  c #732402",
"T  c #7B2200",
"R  c #7C2B02",
"E  c #762A08",
"W  c #753607",
"Q  c #622B15",
"!  c #7A2817",
"~  c #793514",
"^  c #6C340F",
"/  c #492E23",
"(  c #553E2C",
")  c #4B3B31",
"_  c #773829",
"`  c #784816",
"'  c #72422B",
"]  c #6B4933",
"[  c #794A37",
"{  c #764D33",
"}  c #861C05",
"|  c #941E02",
" . c #862704",
".. c #992702",
"X. c #843402",
"o. c #8B3502",
"O. c #8A3B02",
"+. c #89380B",
"@. c #9A3707",
"#. c #872F18",
"$. c #8B3719",
"%. c #963919",
"&. c #B73807",
"*. c #A52E14",
"=. c #A12B07",
"-. c #893B26",
";. c #903C2A",
":. c #A23923",
">. c #C73915",
",. c #98480C",
"<. c #874717",
"1. c #8D4610",
"2. c #AC4C01",
"3. c #B84A04",
"4. c #A4441C",
"5. c #A95519",
"6. c #B4571C",
"7. c #AE6219",
"8. c #B3671A",
"9. c #864426",
"0. c #964529",
"q. c #95542B",
"w. c #834335",
"e. c #9E5B32",
"r. c #905037",
"t. c #AD5E2C",
"y. c #A75826",
"u. c #A95936",
"i. c #B45B39",
"p. c #AA4928",
"a. c #8E6024",
"s. c #AB6526",
"d. c #B76529",
"f. c #A86337",
"g. c #A5753B",
"h. c #B37232",
"j. c #C54207",
"k. c #C94216",
"l. c #D45714",
"z. c #DA7C1A",
"x. c #D16D14",
"c. c #E3741D",
"v. c #C06224",
"b. c #C57128",
"n. c #D47326",
"m. c #C7693B",
"M. c #C57738",
"N. c #D57134",
"B. c #E37723",
"V. c #935B4D",
"C. c #A55949",
"Z. c #B35B42",
"A. c #9A6353",
"S. c #99674C",
"D. c #B96547",
"F. c #A97752",
"G. c #C5664D",
"H. c #C57846",
"J. c #BF8B37",
"K. c #E68716",
"L. c #E0911B",
"P. c #D88A2A",
"I. c #CA843D",
"U. c #D98A36",
"Y. c #CA8F29",
"T. c #E88728",
"R. c #E79A27",
"E. c #E88A37",
"W. c #F38936",
"Q. c #E9973A",
"!. c #F4943B",
"~. c #F2993D",
"^. c #F99A2E",
"/. c #DDA631",
"(. c #EFA82C",
"). c #F4A52E",
"_. c #E6A33C",
"`. c #F7A43A",
"'. c #EBB33E",
"]. c #FCB13B",
"[. c #CF881C",
"{. c #CD8A41",
"}. c #D78946",
"|. c #DA9849",
" X c #C68554",
".X c #DD8955",
"XX c #D09454",
"oX c #E69347",
"OX c #F99845",
"+X c #E49952",
"@X c #ED904D",
"#X c #D4AF4A",
"$X c #EAA543",
"%X c #F7A747",
"&X c #EAB946",
"*X c #FDBC4C",
"=X c #F9B448",
"-X c #EAA855",
";X c #F8A958",
":X c #E8B55D",
">X c #FEB653",
",X c #FDBD54",
"<X c #FEB45C",
"1X c #FFBB5D",
"2X c #F5BA56",
"3X c #C1906D",
"4X c #E59D62",
"5X c #D9A66B",
"6X c #FCAC65",
"7X c #FEBC64",
"8X c #F8B967",
"9X c #FBAF74",
"0X c #FFBC72",
"qX c #E6A972",
"wX c #F9C74A",
"eX c #FEC55C",
"rX c #FAC657",
"tX c #FFD35D",
"yX c #FED95A",
"uX c #ECCA56",
"iX c #FFE65D",
"pX c #FDC36A",
"aX c #FDCB6E",
"sX c #FAC362",
"dX c #FFDC6A",
"fX c #FDD56A",
"gX c #FFCF72",
"hX c #FFCB7D",
"jX c #FDC477",
"kX c #FFD572",
"lX c #FFDB73",
"zX c #FFDD7B",
"xX c #FBD777",
"cX c #E8C573",
"vX c #FFE76A",
"bX c #FFE274",
"nX c #FFEB73",
"mX c #F9B983",
"MX c #EAA981",
"NX c #FFCF8A",
"BX c #FFE482",
"VX c #FFE38E",
"CX c #FFEA93",
"ZX c #FFF48A",
"AX c #FFEDA4",
"SX c #FFF7A9",
"DX c #FFF4B6",
"FX c #FFE9B7",
/* pixels */
"                                                          X X                                                                   ",
"                                                                                                                                ",
"                                                                                                                                ",
"                                                                                                                                ",
"                                              X                                                                                 ",
"                                                                                                                                ",
"                                          o O o                                                                                 ",
"                                          O = =                                                                                 ",
"                                        + = - .           .                                                                     ",
"                                        + - t o             .                                                                   ",
"                                        O - i ;   X X X . .   +                                                                 ",
"                                        o u p - . . . . . .                                                                     ",
"                                  o O o ; p s y @ # : , # @ @ . . @ . . .                                                       ",
"                                  O ; - - p ) / 6 j J c q : # & # # @ @ @ . .                                                   ",
"                                . @ - p p a ( ' <.t.5.X.E b 8 2 2 , , % # @ . .                                                 ",
"                                @ @ = a a ( ] q.s.@Xn. .Z x d l l q 8 2 : # @ @ .                                               ",
"                            . @ # # 9 a ) ] { q.6.2.%X[.O.Y I z g n m 7 6 2 % @ @ . .                                           ",
"                            * 1 @ 2 r K ] ' F.mX6XU./.&X2X-X|.I.+.E V z k 4 : , # @ . .                                         ",
"                            . @ @ 2 K Q $.f.qXjX-X-X&XuXwXrXrXfXU.5.Y Y ` g.' : < % @ . .                                       ",
"                  o       . @ : < 6 _ D.H.4X:X:X:XgXdXnXvXyXiXyXeX;X+X{.{.AX5Xq 8 < # @ . X                                     ",
"                          . # > Q _ i..X.X-XgXBXBXbXlX&XwXyXnXZXlX&XrXfXxXxX5XJ h 8 : @ @                                       ",
"                        = # : 4 j Z S o.h.pXzXfXBXgX-XP.2XeXsXsXkXkXrX&X&X2X8XW j 8 , # @ .                                     ",
"                X   . = y e w L f x D R |.zX#XvXbX:X5.d.M.5.M..X+XhXaX_.[.%XhX<.j q 2 % . .                                     ",
"                      - 9 , w _ _ V S R -XuXuXnXbX{.4.4.@.%.4.m.t.s.-X7X`.$X0X<.j q 2 % . .                                     ",
"                        . # > L A Z O.8.sXrXbXxX8XM.%.$.0.p.i.i.Z.$.D.+X<X;XI.I b q < % $     X                                 ",
"                        @ : > L i.}.E.%XeXrXBX#X+Xm.$.! ;.;.Z.Z.C.r.-.t.}.jXM.j J q < # . . o                                   ",
"                      . @ # : j d.n.2.Q.sXzXCXcXI.M.#.H A ! 9.C.A.w.U v s.NXXXU d 7 < # @                                       ",
"                        . @ : k y.v.2.b.VXCXSXVXaX;X .Z Z x U A.A.[ _ j W mXf.f.v 5 6 : . . o                                   ",
"                          @ : l U y.6.M.DXSXZXuXeX1XM.o.o.R E C.V.[ ' c d qX0.Y r.-.L > : r . .                                 ",
"                      . . . @ > Q u.B i.FXSXlX&X'.*X`.b.8.,.$.0._ [ _ L c 9.U x x n M q K / @ .                                 ",
"                          . # < r.I D E 3XDXdXwXR.(.].=XU.7.o.$.-.w._ _ z j c j j 4 l K 2 9 $                                   ",
"                      o     @ , P v S S 3XDXaX'.R.].).).*X>X+Xd.+.0.;._ n z j j h q 0 e 1 & +                                   ",
"                            . # 6 j G N ~ qXAXaX_.rX`.z.K.^.=X7XM.t.0.;.! x z d d w @ . & *                                     ",
"                            . @ : 7 g G D $.XXVXgXP.].R.K.K.R.*XpXoXH.4.$.F C f d > $ . .                                       ",
"                            . @ % < m x Z T  .6.OXQ.].wX(.L.T.!.OXOX0XI.O.T Z x d > % @     .                                   ",
"                            . . % 2 7 z Y  . . .@.E.eXdXrX*X~.!.!.E.%XpX;X,.R x d q # # . .                                     ",
"                            . @ @ : 7 b C V S S T 5.-XU.$X1X<X;X%X!.Q.%X1X;XI.y.v h > # .                                       ",
"                          . . @ % 2 7 f x C A A V +.5.Z 8.8XhX0X;XOXOX!.T.>X$Xh.W d 6 % @ +                                     ",
"                          . . # # 8 5 z n x G A V Z N T H.qX4XNX0X<XW.T.T.`.dXY.s.W 7 , @ .                                     ",
"                          . @ # 6 4 j z x U A A x V N -.e.H. XH.}.6XOXT.z.`.dXfX8X Xq 8 # @                                     ",
"                        . . @ % 6 7 z ~ f.Y S S Z V H ;.9.9.q.u.y.M.6X%XT.R.tXbXCX5Xk 6 # @                                     ",
"                        . . @ , 6 j z q.9XX.D B F S ! -.-.0.0.Z.i.y.I.;X`.R.wXdXCXXXh w # @                                     ",
"                        . . @ , 7 j Z y.0X,.D } F F A F #.%.p.G.D.y.s.8XsX_.wXtXgXg.6 e @ .   .                                 ",
"                        . . $ 2 l n Y 6.7Xb. . .} F F D  .} } :.G.i.M.hXkX/./.wX8Xa.> , @ $                                     ",
"                        . . $ < M g  .v.;XE.o. .} B B } ..&.....G.i.}.7XkXwX'.tXsX` 0 3 @ .                                     ",
"                        . . # , 8 z  .v.!.W.6.@.*.*.| =.&.k.k.&.m.m.oXsXkXrXrXeXJ.k < 1 * .                                     ",
"                        . . @ : w z Z N.W.c.OX3.&.k.>.k.l.j.l.l.@XU.$XtX,X&XlXgXg.k : # @ . o                                   ",
"                          . @ % 6 d C 5.W.x.B.OXl.&.j.&.l.l.3.B.OXP.&X*X_.sXpXg.h 6 : # @ .                                     ",
"                          . . @ : 7 j t.@Xc.c.T.OXT.n.x.z.T.x.K.%X>X=X_.<X;X1.q.L 6 # * .                                       ",
"                            . . % < 4 e.9Xn.n.E.!.1XpXsX*X%X].].eXeX;X7X}.1.U J 7 : @ .                                         ",
"                            . . @ : : S.MXX.X.o.b.}.oX;X1X>X,X,X1X-X-Xh.c k 7 6 : @ @ .                                         ",
"                                . @ % K Q j z x R y.y.,.7.8.8.}.d.1.<.U k 0 < # @ @ . .   X X                                   ",
"                                  . $ # # < h d f x ~ E v C I ~ <.~ U 7 0 # 9 @ . +       X X X                                 ",
"                                + +   & & @ , > 7 5 5 5 j d d P Q j 4 < # & . + .             X                                 ",
"                                        o @ @ % # 6 6 6 6 6 < < > > : % $ . +                                                   ",
"                                      .     o . @ @ # % # % % # % # @ . . +                                                     ",
"                                                + + . . . . . . . . . . . .                                                     ",
"                                                            .                                                                   ",
"                                                            X X                                                                 ",
"                                                      X X X X X                             X                                   ",
"                                                                                            X                                   ",
"                                                                                                                                ",
"                                                                                                                                ",
"                                                                                                                                "
};
