/* XPM */
static char *xpm_[] = {
/* columns rows colors chars-per-pixel */
"64 64 249 2 ",
"   c #010101",
".  c #0B0302",
"X  c #040A03",
"o  c #0B0905",
"O  c #03030A",
"+  c #0A040B",
"@  c #04090A",
"#  c #0A0A0A",
"$  c #130301",
"%  c #1C0302",
"&  c #130A04",
"*  c #1C0B03",
"=  c #13040A",
"-  c #19040A",
";  c #130C0A",
":  c #1D0B0B",
">  c #081407",
",  c #131303",
"<  c #1A1403",
"1  c #12110A",
"2  c #1C130C",
"3  c #18180B",
"4  c #0C0C11",
"5  c #060414",
"6  c #120D13",
"7  c #1B0C13",
"8  c #120612",
"9  c #0B1212",
"0  c #141215",
"q  c #1B151C",
"w  c #1A1914",
"e  c #240301",
"r  c #2B0401",
"t  c #230C01",
"y  c #2A0B03",
"u  c #240C0B",
"i  c #26070B",
"p  c #3B0A02",
"a  c #380906",
"s  c #231203",
"d  c #2B1404",
"f  c #23130C",
"g  c #231C0C",
"h  c #2A1809",
"j  c #351A08",
"k  c #270A10",
"l  c #211112",
"z  c #261B15",
"x  c #361814",
"c  c #380D14",
"v  c #1B2113",
"b  c #332000",
"n  c #38281A",
"m  c #242614",
"M  c #281E24",
"N  c #3F1F24",
"B  c #2D2D2D",
"V  c #373020",
"C  c #3B3B3B",
"Z  c gray20",
"A  c #460C06",
"S  c #580C07",
"D  c #4B1303",
"F  c #441507",
"G  c #5B1502",
"H  c #571C0A",
"J  c #471910",
"K  c #4C0C12",
"L  c #6B1B02",
"P  c #691A08",
"I  c #771807",
"U  c #661A13",
"Y  c #472502",
"T  c #5B2506",
"R  c #533106",
"E  c #452818",
"W  c #592A15",
"Q  c #5A3316",
"!  c #483316",
"~  c #622401",
"^  c #6A2608",
"/  c #762C0C",
"(  c #683806",
")  c #7A3609",
"_  c #662712",
"`  c #772A18",
"'  c #6C3D18",
"]  c #73351C",
"[  c #4E1123",
"{  c #482C27",
"}  c #483526",
"|  c #49332B",
" . c #6C362C",
".. c #764516",
"X. c #704709",
"o. c #5A442D",
"O. c #754424",
"+. c #6C4D31",
"@. c #474747",
"#. c #7F5040",
"$. c #8C1C07",
"%. c #821A11",
"&. c #872708",
"*. c #942C00",
"=. c #8B3A09",
"-. c #973A07",
";. c #872A14",
":. c #843519",
">. c #9B3918",
",. c #912316",
"<. c #A83804",
"1. c #B73818",
"2. c #8B2322",
"3. c #D23116",
"4. c #E23306",
"5. c #8A4604",
"6. c #9B4C08",
"7. c #955E0F",
"8. c #874C16",
"9. c #9B4515",
"0. c #88571F",
"q. c #A74907",
"w. c #B84C07",
"e. c #A65B07",
"r. c #B44916",
"t. c #B85913",
"y. c #AA5A11",
"u. c #9C650B",
"i. c #B96504",
"p. c #B86914",
"a. c #B67619",
"s. c #A76714",
"d. c #8E4B27",
"f. c #984C26",
"g. c #98522E",
"h. c #A84C22",
"j. c #AA582A",
"k. c #B2522A",
"l. c #886624",
"z. c #96692E",
"x. c #BD7E2F",
"c. c #A26735",
"v. c #B66F2D",
"b. c #C85904",
"n. c #D65504",
"m. c #C34D14",
"M. c #CB5116",
"N. c #D55A13",
"B. c #D84E10",
"V. c #EE4F00",
"C. c #EB550F",
"Z. c #C66A0A",
"A. c #D86706",
"S. c #C96B13",
"D. c #D8781A",
"F. c #D36E0E",
"G. c #E56706",
"H. c #F56D09",
"J. c #EC750C",
"K. c #F57804",
"L. c #E86717",
"P. c #F26916",
"I. c #ED7C17",
"U. c #F27313",
"Y. c #E85822",
"T. c #D26724",
"R. c #D0692E",
"E. c #EB6827",
"W. c #E77828",
"Q. c #FA7B23",
"!. c #E37B32",
"~. c #C27644",
"^. c #BF8A1A",
"/. c #AC8338",
"(. c #BC8A2F",
"). c #CB881A",
"_. c #DA9718",
"`. c #D08C18",
"'. c #EC8B07",
"]. c #F58E0C",
"[. c #F78B05",
"{. c #FC9A01",
"}. c #F59808",
"|. c #E98A14",
" X c #FC8B13",
".X c #F38B19",
"XX c #E89718",
"oX c #F79A11",
"OX c #EB9F0D",
"+X c #D0A00E",
"@X c #D9B519",
"#X c #EAAB06",
"$X c #FDA30A",
"%X c #F4AB09",
"&X c #FBB807",
"*X c #ECAA16",
"=X c #F7A517",
"-X c #EAB71A",
";X c #FCBC1D",
":X c #F6B91A",
">X c #C08A28",
",X c #D79736",
"<X c #D3912C",
"1X c #E88825",
"2X c #E89828",
"3X c #FC9629",
"4X c #F38B34",
"5X c #F89933",
"6X c #F68E2B",
"7X c #DAB92C",
"8X c #EBA222",
"9X c #E9AA28",
"0X c #F9A826",
"qX c #FCB728",
"wX c #F5A435",
"eX c #F9B932",
"rX c #EBAF2F",
"tX c #FFC40B",
"yX c #FFCC0D",
"uX c #FAC700",
"iX c #FCC81A",
"pX c #F5D61C",
"aX c #F2DB0F",
"sX c #FEFB10",
"dX c #FDE812",
"fX c #EEC328",
"gX c #F8C625",
"hX c #FFDD25",
"jX c #FAD328",
"kX c #EAC63B",
"lX c #F9C438",
"zX c #F6D935",
"xX c #EED62B",
"cX c #F8E728",
"vX c #FFF920",
"bX c #FBE436",
"nX c #FCF73E",
"mX c #F3B351",
"MX c #DA8C49",
"NX c #FFD345",
"BX c #E7D15B",
"VX c #F2CD4F",
"CX c #F0E241",
"ZX c #FCE255",
"AX c #FFF65C",
"SX c #EFE255",
"DX c #FFDE6B",
"FX c #E0C167",
"GX c #FFF465",
/* pixels */
"          # # #                                       # # # X                                     # # X                         ",
"        X # # X                                       X # X                                   O # # # X                         ",
"      # # # X                                           X                                     X # # X                           ",
"    X # # X                                                                                 X o # X                             ",
"  X # # X                                                                               . X o # X                               ",
"  # # X                                                                                 X # # o                                 ",
"  X X                                                                                 X # # o o                                 ",
"                                                                                        . .                                     ",
"                                      @ X       @           X                   . . .                                           ",
"                                    X # # X         X o . . .   .       . .                                                 X   ",
"                                  X # # @       . . . 2 & .   .   O   .   +               O                               # # # ",
"                                . # # X         . . . .         O             X     . . .                               X # # X ",
"                              X # # X         .   . .       O   . . . . .     O                                       X # X     ",
"                            X # # X       . . . # ; ; . 9 O   . . @   # # O O O O O O   X                           X # # X     ",
"                            X # X         . . ; w n n 2 1 o . . * 0 3 n j . h ( b t .                           X X # # X       ",
"                        X X X       X       o w z } o.} z & s E ' n } 0.>X( 7.Z.u.X.y :                           # # X         ",
"                      X # # #         = h R ..h { f.l.j._ J e.p.<X .#.f.>X+XZ.-.P ~ ~ *   .   .               X # X             ",
"                    X # # X     O   O . T q.^././.>XmX(.a._.cXxX7X,X(.FX`.XX_.6.i.5.s   . O O               X # X X             ",
"                  X # # #       .   5 . ( 0XiXqXJ.G.aX=X'.cXSXNXbX-XZXGXaX&X;X*XiX7.O .   5 $             # # # X               ",
"                X # # X X       O X   d Y ..`.-XVXC.=X{.A.lXpXBXkXXX@XfXiXgX'.&XGXfXR + .     .         X # # X                 ",
"              X # # @   X X     # +   O     F _.zX&X[.{.qX=X#XF.b.T.n.p.D.b.VXbXCXhXa.%   .           X # # X                   ",
"            X # # X     X       X   5 X $ 5 . y.i.I.H.[.:XZ.=./ X.( W D ~ ) XXAXvX).A o . . . +     X # # X                     ",
"            X # X             X .   > 9 .   f w.q.J.3.n.*X:.i o # > X # @ e e.lXXXy.e     #   O   X # # X                       ",
"                            X   O # X = . X y &.) oXn.C.W.L D * * ; u .   . ( A.0Xp.% . .   X .   X # X                         ",
"                                  @ X . $ + : D 6.0XP.L.F.S F # : f > * 5 $ j >.a.( F .       .                                 ",
"                                    # 1 ; * x p ( |.3.n.I.P r . O 0 l 1 8 t a H r $ *     .   .                                 ",
"                                . O   # q d H H 9.1X4.G.Q.:.H Y o , q z $ j [ S c : o   O + . X                                 ",
"                                .     . o * T ` t.D.L. X9XS.:.| V . f v E 9.s.L a e $ . o .                                     ",
"                                    + . . o J h.9.].U.3XlXL.9.n } ] >.` j.rX X:.e * - o . .   .                                 ",
"                                  o X . & 9 f f.1X0X XW.qX2Xb.>.j.t.B.B.3X8XU.<.c f f # @ + . .                                 ",
"                                      . . 0 f W v.8XyX;XSXzX2X1X1X6.N.XXqXV.0X,X] E E ,   .     . .                             ",
"                                . 9 O   + & d n ..I.gXzXAXZXkXeX9X4XL..XH.C.gX1X9.H N 7 = % .   . . .                           ",
"                                      @ 4 w z E 8.[.0X-XAXDXNXwXXX1XD.]. X'.$XM.,.j > & e . . &                                 ",
"                                X   X # + . < E x.0XP.Q.lXwX4X1.;.m.1.<.m.P.6X5.F % % * & O +                                   ",
"                              X   o X   . . < o.MX_.C.P.2XR.k.&.:.&.P D I m.1X:.$ u k $   @ .                                   ",
"                            X # @ .     . . 2 +.x.1XY.5X9Xr.g.' ` a d y H p.|.&.a % * . . o . .                   X X           ",
"                          X # # @     X   # 3 x j.5XY.L.eXR._ W s d j d a ;.-.G a e i ; $ . $ .                   # # X         ",
"                        # # # X           @ 1 i d.2XE.E.2XN.P x 9 % - l a A r e % J A % % . +                   X # #           ",
"                      X # # X           # X o { c.wX!.MX0Xn.I 7 $ @ 0 l < < * $ * G &.G K -   O               X # X             ",
"                  X # # # X       .   o ; w g E c.3XwXmXqX<.S p k , > 4 : 2 z h K L W.t.I y . .           X X # # X             ",
"                    X # X       .   . > M m m 7 z.lX=XH.jXr.K j h 6 # X < n x E L p.iXS.*.& # .         X # # @                 ",
"                # X X               # 0 n | z ..VXnXuXC.%XZ.` x h 2 O . u x Q ;.N.0X&XD.*.$ O . X       X # @                   ",
"              X # #             O   . M { ! +.~.,XnXsX{.U.q.^ E n z t y h Q g.%.2X0X#Xe.r . X + .     X # X                     ",
"            X # # X             O O . s E l.BXmX`.hXdX[.%XT.$.2.Q ` P D U h.1XS.lXjXqX=..     .     # # X                       ",
"          X # #                 + . & z H f.(.kX}.&X&X*X}.gXM.r.9.|.m.&.9.t.2XcX[.A.2X*.y = . X   # # #                         ",
"        X # X               X # O . . - d.4X*XhX&X}.tX$XK. X$X|.oXpXqX`.xXhXK.}.H.G.S.$.D X O O # # #                           ",
"      X # # X               X #   X . . 8.}.tX:X-XyX0X{.=X8XjX-X}.-X=X].=X;XtXgXoX.Xp.J i X o . # #                             ",
"    # # # X                 X # ; O O X p ) ) U / Z.b.b.G.'.pX*XD.^ G I *.Z.i.) q.r.5.0 g $ $ 4 #                               ",
"    X #                     X # # X   + & $ & * D D <.b.q...s.i.T % = - p / r l A H O.Q : q 0 o                                 ",
"  0                           X @ X # o . . . $ * & T =.%   . & . . $ . & * . f z $ j n 3 4 # .                                 ",
"# C X                         X   X # # . . . .     * ) X . O   O X $ . O   # * 9 X 1 1 @ @ X                                   ",
"X @.                                    # # X         T o $ +       .     . # ; 4 0 6 # X                                       ",
"X @.                                  X # # O     .   * # .   O       O   X   # ; + + 6 o   X                                 X ",
"# C X                               X # # X             . .   .             .       O X                                     X # ",
"# C X                             X # # X       O O     O   O     .   . .   f ;               X                           X # X ",
"  Z                             X # #           + . . .           . O   .   $   +   . .                                 X # # X ",
"  B #                           # #                                     X X X                                       X # # # X   ",
"  C X                         X X X   .                                 # # X                                       X # # X     ",
"  C X                     X # #     X .                               X # # X                                       X # X       ",
"  B #                   # # # X                                     @ # X                                       # X X           ",
"  C #                 X # #                                       # # #                                     X # # #             ",
"X @.X               # # # X                                     # # #                                       X # #               ",
"  Z               X # # X                                     X # X                                     X X # #                 ",
"                # # # X                                     X #                                         # # # X                 "
};
