/* XPM */
static char *_0677a8d678944f3c8274c78b574e17dDG5gA4Jlan9tZbDw[] = {
/* columns rows colors chars-per-pixel */
"64 64 2 1 ",
"  c #19142B",
". c #ADB4BF",
/* pixels */
"                                                                ",
"                                                                ",
"                                                                ",
"                                                                ",
"                                                                ",
"                                                                ",
"                                                                ",
"                                                                ",
"                                                                ",
"                                                                ",
"                 ....    ....                                   ",
"                 ....    ....                                   ",
"                 ....    ....                                   ",
"                 ....    ....                                   ",
"                 ............                                   ",
"                 ............                                   ",
"                 ............                                   ",
"                 ............                                   ",
"             ........    ....                    ....           ",
"             ........    ....                    ....           ",
"             ........    ....                    ....           ",
"             ........    ....                    ....           ",
"             ....................................               ",
"             ....................................               ",
"             ....................................               ",
"             ....................................               ",
"                 ............................                   ",
"                 ............................                   ",
"                 ............................                   ",
"                 ............................                   ",
"                 ............................                   ",
"                 ............................                   ",
"                 ............................                   ",
"                 ............................                   ",
"                 ....    ....    ....    ....                   ",
"                 ....    ....    ....    ....                   ",
"                 ....    ....    ....    ....                   ",
"                 ....    ....    ....    ....                   ",
"                         ....            ....                   ",
"                         ....            ....                   ",
"                         ....            ....                   ",
"                         ....            ....                   ",
"                                                                ",
"                                                                ",
"                                                                ",
"                                                                ",
"                                                                ",
"                                                                ",
"                                                                ",
"                                                                ",
"                                                                ",
"                                                                ",
"                                                                ",
"                                                                ",
"                                                                ",
"                                                                ",
"                                                                ",
"                                                                ",
"                                                                ",
"                                                                ",
"                                                                ",
"                                                                ",
"                                                                ",
"                                                                "
};
