/* XPM */
static char *_a3d5afc05494ba3ff509ff9017373861a9VeOkIF0RB5q3s[] = {
/* columns rows colors chars-per-pixel */
"64 64 2 1 ",
"  c #19142B",
". c #ADB4BF",
/* pixels */
"                                                                ",
"                                                                ",
"                                                                ",
"                                                                ",
"                                                                ",
"                                                                ",
"                                                                ",
"                                                                ",
"        ....................    ........    ............        ",
"        ....................    ........    ............        ",
"        ....................    ........    ............        ",
"        ....................    ........    ............        ",
"        ....                                        ....        ",
"        ....                                        ....        ",
"        ....  ....................................  ....        ",
"        ....  ....................................  ....        ",
"        ....  ....................................  ....        ",
"        ....  ....................................  ....        ",
"        ....  ....................................  ....        ",
"        ....  ....................................  ....        ",
"        ....  ....................................  ....        ",
"        ....  ....................................  ....        ",
"        ....  ....................................  ....        ",
"        ....  ....................................  ....        ",
"        ....  ....................................  ....        ",
"        ....  ....................................  ....        ",
"        ....  ....................................  ....        ",
"        ....  ....................................  ....        ",
"        ....  ....................................  ....        ",
"        ....  ....................................  ....        ",
"        ....  ..............................    ..  ....        ",
"        ....  ..............................    ..  ....        ",
"        ....  ..............................    ..  ....        ",
"        ....  ..............................    ..  ....        ",
"        ....  ....................................  ....        ",
"        ....  ....................................  ....        ",
"        ....  ....................................  ....        ",
"        ....  ....................................  ....        ",
"        ....  ....................................  ....        ",
"        ....  ....................................  ....        ",
"        ....  ....................................  ....        ",
"        ....  ....................................  ....        ",
"        ....  ....................................  ....        ",
"        ....  ....................................  ....        ",
"        ....  ....................................  ....        ",
"        ....  ....................................  ....        ",
"        ....  ....................................  ....        ",
"        ....  ....................................  ....        ",
"        ....  ....................................  ....        ",
"        ....  ....................................  ....        ",
"        ....                                        ....        ",
"        ....                                        ....        ",
"        ................................................        ",
"        ................................................        ",
"        ................................................        ",
"        ................................................        ",
"                                                                ",
"                                                                ",
"                                                                ",
"                                                                ",
"                                                                ",
"                                                                ",
"                                                                ",
"                                                                "
};
