/* XPM */
static char *b4d65b435145439da3c2b4c3c6af174e2X6IqdTgovoboPWZ[] = {
/* columns rows colors chars-per-pixel */
"64 64 218 2 ",
"   c #010101",
".  c #080000",
"X  c #030A03",
"o  c #0A0D03",
"O  c #00040C",
"+  c #040D09",
"@  c #0B0F08",
"#  c #110E04",
"$  c #06110A",
"%  c #0C130C",
"&  c #0D180E",
"*  c #0E1005",
"=  c #12150D",
"-  c #18170B",
";  c #000612",
":  c #000912",
">  c #0C1511",
",  c #0E1913",
"<  c #0A1C1B",
"1  c #121712",
"2  c #131B14",
"3  c #1B1C14",
"4  c #131D1A",
"5  c #1A1F1B",
"6  c #211A0D",
"7  c #241E13",
"8  c #15221A",
"9  c #1A231C",
"0  c #1C281E",
"q  c #162318",
"w  c #0E211D",
"e  c #20221C",
"r  c #2B2318",
"t  c #30271A",
"y  c #332A1C",
"u  c #3B2C1D",
"i  c #382715",
"p  c #0A262D",
"a  c #1B2521",
"s  c #172924",
"d  c #1D2A23",
"f  c #152A2B",
"g  c #1C2D2B",
"h  c #162425",
"j  c #1D322C",
"k  c #193326",
"l  c #082A36",
"z  c #1C2D31",
"x  c #142C31",
"c  c #0A313B",
"v  c #1B3536",
"b  c #222C25",
"n  c #232E2A",
"m  c #2A2E28",
"M  c #372D23",
"N  c #233127",
"B  c #23332C",
"V  c #2A352D",
"C  c #26392F",
"Z  c #2A3A2E",
"A  c #38382B",
"S  c #272F33",
"D  c #243533",
"F  c #2B3631",
"G  c #243934",
"H  c #2B3A35",
"J  c #263B39",
"K  c #2B3D3B",
"L  c #24363B",
"P  c #313D35",
"I  c #323D3A",
"U  c #46392B",
"Y  c #523F30",
"T  c #2D413C",
"R  c #2A413A",
"E  c #34433D",
"W  c #3A493D",
"Q  c #35463C",
"!  c #47473A",
"~  c #584537",
"^  c #624A39",
"/  c #073948",
"(  c #1A3C45",
")  c #253C42",
"_  c #2C3E42",
"`  c #323C42",
"'  c #0D475D",
"]  c #2C4242",
"[  c #2D4848",
"{  c #344442",
"}  c #364943",
"|  c #3B4C44",
" . c #3C4C4A",
".. c #394648",
"X. c #3D524A",
"o. c #3B524B",
"O. c #354C54",
"+. c #3C5658",
"@. c #284B55",
"#. c #1C5666",
"$. c #0B4960",
"%. c #225E72",
"&. c #295965",
"*. c #1E647D",
"=. c #2A6A7C",
"-. c #434E45",
";. c #474D46",
":. c #445146",
">. c #4C5445",
",. c #43534C",
"<. c #4B564D",
"1. c #4C594F",
"2. c #44594A",
"3. c #56594B",
"4. c #445256",
"5. c #465951",
"6. c #4B5B54",
"7. c #4B5D5A",
"8. c #485858",
"9. c #525D54",
"0. c #505F5A",
"q. c #5A4E42",
"w. c #624F42",
"e. c #645243",
"r. c #685649",
"t. c #735C4B",
"y. c #725E51",
"u. c #615F52",
"i. c #4E6159",
"p. c #46605D",
"a. c #53635C",
"s. c #5A655D",
"d. c #536356",
"f. c #676558",
"g. c #766152",
"h. c #485D62",
"j. c #486268",
"k. c #536662",
"l. c #566862",
"z. c #5B6B65",
"x. c #5A6D69",
"c. c #5E7266",
"v. c #626E69",
"b. c #636F67",
"n. c #62726B",
"m. c #667569",
"M. c #647672",
"N. c #6A7A72",
"B. c #6A7771",
"V. c #727D77",
"C. c #776D61",
"Z. c #81695A",
"A. c #8A786A",
"S. c #897D72",
"D. c #937F74",
"F. c #74837C",
"G. c #79847C",
"H. c #7B887E",
"J. c #748177",
"K. c #6F8173",
"L. c #8C8579",
"P. c #948679",
"I. c #968A7D",
"U. c #9A897D",
"Y. c #998475",
"T. c #A08D7C",
"R. c #197D94",
"E. c #28788B",
"W. c #3A7487",
"Q. c #257B92",
"!. c #2F758C",
"~. c #44788E",
"^. c #298398",
"/. c #398194",
"(. c #5A8B9B",
"). c #7C8B83",
"_. c #7A8A84",
"`. c #7B9498",
"'. c #5E91A4",
"]. c #818C85",
"[. c #828D89",
"{. c #998C82",
"}. c #85938B",
"|. c #89968D",
" X c #8A988F",
".X c #85948A",
"XX c #9E968B",
"oX c #8A9791",
"OX c #8D9B93",
"+X c #8D9C9A",
"@X c #919E95",
"#X c #929E9A",
"$X c #93A097",
"%X c #95A29B",
"&X c #99A69D",
"*X c #9BA89F",
"=X c #8BA395",
"-X c #95A4A1",
";X c #9AA6A1",
":X c #9CAAA3",
">X c #95A8A3",
",X c #8EA8A5",
"<X c #A1AEA5",
"1X c #A0ACA8",
"2X c #A6B3AA",
"3X c #B2BFB6",
"4X c #AEBBB1",
"5X c #B6C3B9",
"6X c #BECBC3",
"7X c #C1CEC5",
"8X c #C8D5CC",
"9X c #CCD9D0",
"0X c #D2DFD5",
"qX c #DBE8DF",
"wX c #D7E4DB",
"eX c #DEEBE2",
"rX c #E2EFE6",
"tX c #E7F4EB",
/* pixels */
"                    O       [.[.|.@X|.OX.X|.|.}.#XOX&X@X@X%X8XqX7X&XH.F.F.M.x.k.l.6.X.6.)..XK.d.R q       .                     ",
"                  O         [.]. X|.@XOX$X.XOX@X&X#XOX@X@X X<X<XXX X.XH.F.F.M.j.p.6.5.2.c.).H.b.R k     .                       ",
"                            ].[..X|.*X7X0X3X@X%X@X*X@X@X<X7X0X4X$X X X_.N.n.l.l.k.7.2.| X.m.m.X.C s                             ",
"                            ).].J.5XwXrXtXwX<X|.@X@XOX2XwXtXtXqX2XOX X_.M.x.l.x.i.6.5.X.R Q Q k k s   .   .                     ",
"                            V.G.].4XrXrXrXqX7X%X@XOX@X<XqXrXrXtX9X$X.X.XF.M.x.x.k.7.o.o.R C B B B g     .                       ",
"                            V.G.H. X7XqXqXrX8X%X@X#X%X@X2XrXtXeX8X$X|.$X.XJ.n.z.a.6.| } W Q C j j N     .                       ",
"                            B.V.H.H.&XwX8X3X1X#X#X@X*X%XOX5X9X5X$XOX#X$XOX).N.a.7.6.,.| } R G B g j   . .                       ",
"                  .       . m.B.J.H.G.].1X%X%X&X#X&X#X@X@X@X#X@X$X&X#X=X%X|.J.b.l.5.X.} E K G j j N       .                   O ",
"                            s.b.B.B.H.)..X&X*X%X&X%XOXoX=X%XOX%X$X$X$X@X X@X XJ.k.6.| Q T K D D j D       .                     ",
"                            <.9.f.V.G.L.}.=X;X%X#X}.oX;X:X&X%X+X*X@X X X$X&X@X.XN.7.| } T H G G j z   . .                       ",
"                            9.9.s.B.G.].}.oX@X&X@X%X=X+X%X:X-XOX|.@X$X@X@X&X&X&X_.d. .} T J R v J J O                           ",
"                .           0.s.Z P m.H.].].).;X;X1X-X-X:X-X%X$XOX&X:X&X&X*X&X#X).z.,.} { R R J v J   O                       O ",
"                            d.d.:.% q 6.).OX}.@X;X;X-X:X%X%X:X-X;X#X;X1X&X#X#XXXoXJ.i.} T T J J ] [ +                           ",
"                            9.9.:.m 1 2 P B.@X}.;X1X;X-X#X-X:X>X;X-X;X;X#X#X*X&X&X Xc.| K K J R [ o.+ O O                       ",
"                            <.9.W V 4 4 1 d ,.v.0.v.v._.oX_.[.OX#X#X+XoX#X1X#X#X%XOXK.5.K G J v v } O                           ",
"                            <.>.d.-.B 1 2 2 1 a d a d K E I { H I ,.8.0.m.b.m.[.OXoX_.l.T D D x ( @.O O                         ",
"                          X :.9.3.>.V - & q q e 0 e b 5 d S K g 1 4 k g S h S ` 7.x.d.} d < x c %.=.: . . .                     ",
"      O             .       >.>.3.>.Q & & 2 e 9 e 6 9 m F D { d 5 3 j | S ` ;.I f j C b g L ( &.E.E.; .   . .                   ",
"                    O   O   >.! 3.C.>.- q 9 & 2 q q e q F F I 4 4 4 j R K ` D D D T E I O.O.&.~.Q.!.;         .                 ",
"                            ;.! f.L.u.2 9 & N <.2.Q 0 0 V P m a 5 h g { | I H C G j I ..O.O.W./.Q.E.; O     .                 O ",
"                            ;.9.S.S.U 3 3 Z N.m.Q R Q Z 0 9 b a h 5 h F W 1.W W Q w k E _ @.!.E.R.E.:                     .     ",
"      O               .   . f.L.{.r.r 7 q ! m.W W q Q W V q d b n a n 8 Z 2.H.=X=X=X1.F z ( =.Q.R.E.: O       O                 ",
"                        .   L.XXS.M 7 7 q d k Z d.2.:.d.9 V b m h D F N N b.=XQ k _.:X{ x l #.E.^.^.;         .                 ",
"                  O     . . XXI.3.r 3 - 9 & q q R W W W V N b 4 4 > V H k =XM.p.o.G >XL p p / *.^.^.;   O     O O               ",
"                      . . . {.P.~ 3 1 3 5 , 1 8 4 % 2 9 2 9 4 4 1 > > B 0 N.k.x.,Xv p.j v v l / Q./.; O     . O                 ",
"        O                 . {.L.U 4 3 5 4 > 1 1 1 1 9 9 9 5 1 > 4 < $ < B G D f v v p.p.O.f p l !.W.; .     O .                 ",
"                      O . . {.I.! * 3 1 1 1 1 1 2 3 e 9 a 4 4 4 > 4 2 4 D L v _ O.+.+.O.j h h p ' W.O   .   O   .   O         O ",
"                        . . {.I.;.= 2 , 1 1 2 1 3 3 3 5 b b V { ` I n 8 K ..8.+.j.O.+._ f f h p / ~.O . .   .                   ",
"                          . U.U.3.- - = % > 1 2 1 3 3 9 9 a g Q  .| >.P B a.h.h.j.+.h._ z h h l %.(.; .         O     O         ",
"        O               . . U.U.f.- o = % = = 2 1 3 - q , , q D } } q q % | h.[ _ O.4.4.K L L l !.'.O .                         ",
"        .         X       . P.Y.C.y o # * 1 = 1 > 1 % & , & s E J K d 2 q H J p S ` 4.h.K L v / %.(.O                     .   O ",
"                          . P.U.A.U - - * 1 = , 1 , & & 2 & N W T ,.0 9 N 2.R f L 4.` ` ..) ] l #.(.O .                         ",
"                          . Y.T.A.q.- # - % , & 1 % 1 % * % e B E V d b F H g < j K K _ { _ ) x h.`.                    .       ",
"                      O   . Y.Y.D.r.r - % % = > % > - = = 1 2 9 I -.W H K Q j j ]  .] { ] z z f 7.,X  O                         ",
"                            T.Y.A.r.A 7 o % 1 % % 1 = @ % @ = b P F P I I | f w z K J K _ z z z h.>X  O               .         ",
"                .       O . U.D.Z.r.~ M - = 1 % = % @ = % @ 2 P -.P F P K } H s G ] _ K K _ ] I k.-X    O               .       ",
"                        O . D.A.y.w.~ M 3 = % = % o % 5 3 2 9 b P ! E F B 0 B G J T E {  .4.8.8.M.-X      O                     ",
"                .       . . A.g.r.^ U M 7 @ @ 1 = @ - 3 % 1 9 9 S Q 9.a.<.g K E } ..{ .. ...` { M.+X  O               .         ",
"                  .   O   . y.t.^ Y U t 7 o @ = = 1 1 @ X @ 1 4 9 2 V -.| F E H  .Q D D D n z L h.+X                            ",
"                        . . e.^ ~ Y u r 7 o * @ @ @ = @ 2 % % @ & % % , V -.,.| F F g a s h d D 4.+X    .               .       ",
"                          . ^ ^ ~ U u 7 # . @ X X @ * = % % @ + % % % 4 B P V d 4 < , , > > 4 s .._.    .               .       ",
"                .       O . w.e.^ Y u 6 # o o X X X o @ @ % % , % % % % , , % X $ $ $ $ > > < s ] V.O                           ",
"                .     O   . y.y.e.~ y - X X X         X X @ X + @ X % X X + X X + $ + $ $ > q s { M.                  . O       ",
"                            y.y.^ Y r o   X X X X X X o       X X X   X X X X X X + + $ $ > q d I z.                    .       ",
"                  .       . e.~ U i - * * $ X   X   X     X   X X     X X     X X + + $ % & 2 0 K 0.                  .         ",
"    .                 O     ! u i 7 7 9 0 2 $ $ X X X       X X X     X X X X X X X $ $ $ & < 0 H ,.                          O ",
"                            u i t - - - q 9 k b , > @ o X o X     X X X     X X X X $ X $ & , 0 K ,.      .           .         ",
"                            i u - * X o $ & < 1 , X X         X X         X X   X X X $ $ % , 9 F  .      .             O       ",
"                            m r o X X X X X X X   X   X X   X     X   X   X   X X $ X $ $ % & 9 I ,.      .                     ",
"                            3 & X X X X X X X   X   X     X   X X   X   X   X X X X X $ $ % 1 9 I ;.                            ",
"                            %   X X X X X X   X X                 X   X   X   X X X X X $ & 1 9 F ..                            ",
"                            o X X X   X   X X   X X   X X   X X X   X   X   X X X X X + $ % & q B I                             ",
"                              o   X     X   X     X X     X X     X   X X   X   X X X X $ & & 9 V H                             ",
"                              X X X X     X   X X     X         X   X     X X X X X X + $ & 2 9 H I                             ",
"                            X . X   X   X   X     X     X     X X   X   X   X X X X X X $ $ & 9 F F                             ",
"                            X       X X   X     X     X   X X     X   X   X   X X + X X $ $ & 9 a n                             ",
"                                  X   X       X X         X X   X   X   X   X   X X X X + $ & & b Z         .                   ",
"                                X     X X     X     X   X     X   X   X   X X X X   X X X $ $ & a B                             ",
"                              X X     X   X           X         X   X   X     X X X X X X + $ & 8 m                           O ",
"                                . X           X   X X     X X     X   X   X   X X   X X X X $ & < a                             ",
"                                          X     X X   X   X   X X   X   X   X   X   X X X X $ $ % 8                             ",
"                                X     X       X           X X     X   X   X X X X   X X X X $ $ % ,                       O     ",
"                                        X .         X X X   X   X   X   X X   X X X X X X X + $ $ >                   O         ",
"                                X     X         X   X     X   X   X   X     X     X X X X X + $ $ &                           O "
};
