/* XPM */
static char *matrix_structure1678825639[] = {
/* columns rows colors chars-per-pixel */
"64 64 135 2 ",
"   c #010200",
".  c #090504",
"X  c #010B01",
"o  c #090906",
"O  c #050D09",
"+  c #0A0D09",
"@  c #011302",
"#  c #081005",
"$  c #001B04",
"%  c #041409",
"&  c #0B140C",
"*  c #031C0A",
"=  c #0B1C0D",
"-  c #11150F",
";  c #101E0F",
":  c #0D1611",
">  c #061F10",
",  c #0D1B11",
"<  c #111411",
"1  c #131D14",
"2  c #1A1D17",
"3  c #191E18",
"4  c #002304",
"5  c #002B04",
"6  c #03230C",
"7  c #0A230E",
"8  c #022B0C",
"9  c #0A2B0F",
"0  c #11220F",
"q  c #003107",
"w  c #02330D",
"e  c #09320F",
"r  c #003A0E",
"t  c #062411",
"y  c #0C2413",
"u  c #042C12",
"i  c #0B2B13",
"p  c #0F2218",
"a  c #062D1A",
"s  c #0E2C19",
"d  c #132315",
"f  c #182617",
"g  c #122B16",
"h  c #15241A",
"j  c #1A251D",
"k  c #132C1B",
"l  c #192B1D",
"z  c #033313",
"x  c #0A3315",
"c  c #033B14",
"v  c #0A3B14",
"b  c #053419",
"n  c #0C341A",
"m  c #043D1B",
"M  c #0B3C1B",
"N  c #173616",
"B  c #123C16",
"V  c #13331C",
"C  c #1A321E",
"Z  c #123B1C",
"A  c #1A3C1E",
"S  c #152F20",
"D  c #1B2D22",
"F  c #0A3420",
"G  c #073822",
"H  c #0D3C21",
"J  c #153521",
"K  c #1A3423",
"L  c #133B23",
"P  c #1B3B24",
"I  c #1E3629",
"U  c #1D3D2A",
"Y  c #222D24",
"T  c #203426",
"R  c #213B26",
"E  c #213529",
"W  c #233B2B",
"Q  c #2D3830",
"!  c #333D35",
"~  c #034216",
"^  c #0B4014",
"/  c #05421C",
"(  c #0B431B",
")  c #044A1E",
"_  c #12421D",
"`  c #104B1D",
"'  c #074020",
"]  c #0C4323",
"[  c #0D4B24",
"{  c #0E4B2B",
"}  c #144423",
"|  c #1A4326",
" . c #134A24",
".. c #1B4925",
"X. c #164429",
"o. c #1D432C",
"O. c #144D2A",
"+. c #1B4A29",
"@. c #0D542C",
"#. c #155427",
"$. c #195026",
"%. c #13532B",
"&. c #19542E",
"*. c #13592D",
"=. c #1A582E",
"-. c #184933",
";. c #135731",
":. c #1B5731",
">. c #135830",
",. c #1B5C35",
"<. c #1A5C38",
"1. c #23432D",
"2. c #20542E",
"3. c #274634",
"4. c #294633",
"5. c #274931",
"6. c #2B4C36",
"7. c #2C4B39",
"8. c #304C36",
"9. c #324F3D",
"0. c #225536",
"q. c #285335",
"w. c #235D37",
"e. c #26573A",
"r. c #2B523C",
"t. c #215A39",
"y. c #31503E",
"u. c #25623B",
"i. c #23683C",
"p. c #2C5C41",
"a. c #365341",
"s. c #236A42",
"d. c #2B6F46",
"f. c #36684B",
"g. c #347652",
/* pixels */
"                        .                                                                             X     O           .       ",
"        .           .                                                                                                     .     ",
"                    . .                                                                                   O O             .     ",
"      .                                                                                                   O               .     ",
"                      .             O                               O                                     .                     ",
"        O                                                       O                               .       O     O           .     ",
"                                  O                                                                                             ",
"      .     O                                                       .         .                         O                       ",
".                                                                     .   o         O                             X             ",
"              .       .                             .                         . .             X X           X       X           ",
"  O   X X     X       X   X X X         X   X                   X                 X X         X X X     X         X   X X   +   ",
"y X % J U s V % % y 6 $ L V W i K @ * % * = & h d 1 O & & 3 X   S O   + & o .   . O % > d X X K * k h X h O X h D   l & , %     ",
"J * $ V q.s y X @ $ V $ M b u M u k k $ @ * d @ & , X O % h X X 3.>   & d O   .   O * % % X @ R 6 i = X d %   , K   d % k >     ",
"t @ u b x V $ X @ 6 A w M z 4 M n $ n t 7 6 @ @ = y % X X d X   7.% X & D #     X X % t y X X o.v u $ X t $ X $ 7 X X % p % X   ",
"* 4 6 Z A @ X X 7 7 $ $ z z M X.| 8 8 6 6 4 * $ @ 7 @ X @ l % X r.6   % T &   .   : t t 7 @ @ Z +.n 4 @ i * X d t X y y y *     ",
"t @ @ 8 x X g X X $ | 9 x x | X. .6 x 8 8 6 $ $ 6 s @ @ % R % X U * X & Y %   .   , s t 7 X @ A } v $ X i $ X C 4.X @ % > X     ",
"9 @ 9 z v u 7 X @ X 9 9 $ * U $ M v 4 5 u 4 $ @ $ P X p $ C X X 3.@ X & Y X       X % y = X @ A 9 9 $ X $ * X d 8.X $ @ * X     ",
"V $ _ v b L $ X i $ x 5 X $ U 6 8 8 x 4 x u k 8 4 P % % $ R =   W $ X # ! 1 X     % X * % X X i $ $ 9 @ 6 y X = V 4 V X > X     ",
"$ @ 8 4 4 Z 0 X X @ v _ c 8 U L ] w _ 8 b u u $ 4 u % % 4 P = X k @   # , &   X   & % d d & X i 4 i k X s 6 X d g @ 9 @ X X   . ",
"V 4 $ B +.8 X   7 6 w 5 ^ 5 u a ( 8 _ e v u 8 * x n % * 9 L @ X K @   & O X       , # & ; = X P x 8 V @ i @ X d y @ k X K &     ",
"9 $ 8 8 &.} = # X x B w M w 8 6 z 8 _ 4 u 8 > $ $ 9 X X $ P @ X y.8 X X D +       O X % & #   J x u V 7 V 6   7 k @ k X S %     ",
"4 @ w 5 &.( @ X X 6 9 _ M O.X.G &.z v 4 Z u y X # g X   $ P X X a.*   & D   o X   &   & & X X J 6 V n $ n t X d V X i $ X X   o ",
"Z 5 r c [ z 6   = 9 B ^ 5 8 ] %.=.4 5 @ i t h X X 7     @ C X X 3.$ X l D   +     : X 1 3 X X t 4 u V @ X @ X d 7 @ W $ t %     ",
"9 4 b c c v i X $ 4 e 5 9 5 [ @.=.r ..8 $ 6 g X 7 l X   @ V @ X y.* X 3 Y   + X   +   & -   X $ 8 Z A X $ @ X , R X k $ X X     ",
"P 8 w  .e @ @ X $ $ 5 q ^ q ~ c *.` z r x 7 i X $ g     $ V @   6.* X # & &     O           X I 7 i t @ K 9 X # d @ g X W >     ",
"A 4 v w 8 $ * X @ x ` r q ~ >.@.~ 5 ^ z z u y X $ C X X @ A = X L @ X = : O o +   o o     X X k $ | i $ y @   ; R X g @ * X   . ",
"9 @ 6 4 %.M $   @ 9 v c 5 ~ *.,.i.~ ( 5 z i k X @ C + X $ R = X V @   d 2 X O + X o X       X P s V 9 X t @ X = g @ i @ y @     ",
"4 X 5 8 s.{ @   * 9 B w ~ #.u.,.@.q c 8 X.i t @ $ h X   * P &   3.* X f Y + & X   O X X   X X V $ V 7 X g k   d g X 1.X @     o ",
"7 @ z ( <.{ s @ @ @ N $ ` r [ O.=.5 v 5 v $ X @ @ =     * C & X 6.* X 1 j   O   o o X , ; X X 5.$ * * X t $ @ @ i @ 7 @ * X X   ",
"g $ M %.<.' 6 X * @ 4 4 ` ^ c c #.5 v 4 n i y X $ * X   @ g &   6.* X d j   O o   & & & & @ @ P $ 6 7 @ X X X , V @ 5.@ 3.X   . ",
"@ X 4 v t.H * X @ 9 _ w r ^ #.) ) r ( 5 b z K % 6 y O   X g & X W $   1 d     X   1 = d 1 X X V 7 l l X P k X K 1.$ n 6 6 X     ",
"7 X 8 8 M n 7 X X 8 =.5 B v d.@.*.r ` e _ u 6 y g 6 %   X g =   4.@ X 1 j   .     & X X @   @ 1.4 9 6 X i 7 @ g P @ V $ s @   . ",
"& X n z 4 } 9 X 4 z x 5 5 w @.>.@.c w 4 M u 6 % = k @ X % y X X K $   & d   o     & #   X X X V 4 1.V @ 9 @ X V 1.@ @ @ * X   . ",
"h   8 z r M g @ X 9 _ 5 w w g.;./ r w u v e 6 @ * y @ X * K   X d @ X # &   < o   3 d % 7 % X P z n i X V g X k g @ A @ d %   X ",
", @ M 8  .m X X 6 8 _ ` $.q <.>.:.( ( 5 $ $ 6 7 * = %   * W %   k @ X O %   + .   , > X % % @ A V 8 9 @ V t X P R $ 6.$ U % X X ",
"& X 9 8 =.( x @ V e w 5 r ~ %.[ O.r  .8 w 8 i @ = f X   * K =   C X   = ,   o   X X @ y 9 @ X V 4 x 9 * $ X X k A X u @ u $   X ",
"y X 9 b &./ Z 9 @ x ` ^ r c u.8 w @ ( 8 w 6 7 X @ 1 X   % p %   k @ X l 3   & o   y * J 7 @ X 9 6 L A t 6 X X 6 g @ 1.$ F * X X ",
"J X $ 5  .O.8 $ $ $ e v r r M 4 } 5 +.v b u $ X   X X   % k X % U $ X h ,   < X X k t e.| X X 6.V v z 4 | % X k g $ L X * X     ",
", X $ w / / A $ X $ B 5 5 r z +.+.@ 9 4 H H y X X       % h X X 6.6 X & &   &     n a X.n X X 6.n 8 u @ X.* X K 7 @ U @ U X X   ",
"h X n ( ,.[ 6 @ 6 $ 8 4 x } s.0.+.@ A 6 ] b * X   o     X & X O 6.6   #     o X X J o.n 6 @ X V 8 U L @ L t X l l @ L @ n %   . ",
"& X u M ] / s @ i n x x $ w t.H q.4 i $ z u t X   - .   X h X X k @ X &     3 X X J L n 6 X @ W $ * $ $ t @ X % = @ n @ a %     ",
"O X a w / H *   @ $ 6 X 9 8 H b x @ x 8 u 4 *           X &   X @ X X < .   2 O   s L M 7 X X C $ 7 * @ R y   j d @ 1.@ $ X     ",
"Y X $ b t.X.X X y * 6 9 9 6 8 H Z 9 x $ u u y X   o     % p X   @     +     - X X K o.L i X X E = X @ X h , @ d f @ P @ 6 %   o ",
"% X u 4 ] +.y X 6 $ $ i 9 8 v 8 v 8 $ @ a * %     +     & D &   % X   o     o     K U @ X @ @ y @ % % X * X X d # X g @ W X   o ",
"% @ n M m 8 * X X x V 5 B e ] m n v V $ * $ d   X       & S O   X     +     O X X y s $ y @ X k $ J % @ k %   % X X $ X % X   . ",
"* X 8 ( c z i X X 7 6 $ w M m b M 5 x 6 s % ,           O %     & X   o X   O X   h J * , $ X s 8 J p @ X X @ y = X E @ >       ",
"V $ 8 z m w 6 # X 7 A 4 c _ ,.m m 4 6 @ t t 1 X     O   X O     2     o     O   X l K s y $ X J i V = X X X X k E @ k @ X X   + ",
"i $ x _ w.} $ X @ $ 6 x +.v  .z M 4 V n 6 % :         X X X     +   . & X   o O X p > * y % X k @ y % X 1 X X 7 = @ K $ y @     ",
"8 @ @ v f.u t @ X * 6 y 9 7 u z Z v z a 6 $ X X % =     > 1   X O     o +   1 &   S y > y *   k * l y X #   X = K X k X E %     ",
"A @ @ L p.a % X X # k * X @ A u 4 $ Z 8 y * % X   %     1 D X   : X   .     - + X % % s t @ X y 6 6 @ @ X X   0 = X t X y X     ",
"= $ u u b * X X   < 1 @ $ $ $ @ 6 z L 8 y * 1 X   X   X % k X   % X   o     o     , y h p % X D i t * % # % X y S % L % K X X X ",
"X @ H H u * @ X X = = X H u % $ 6 7 6 @ = * %   X %     & j   X O X   .   . o   X , p p @   X * @ t * = * %   % k % s X t   X   ",
"& X m { -.a     X & i @ -.G % P R C @ @ * X h   X X     : j     + O         . .   & , h ,     d % V * , % X X & p % K @ h X   O ",
"d X u G G p % X   : l % H a @ l 1.% k , , , 1   X < X   1 1   X : O         .     , % O %   X Q k I , , 1 O X h p X U % I % X X ",
"    X               o   X X     %   X X     X                   O         .           X             X X         X         X     ",
"      .     .   .                 X                         .                   X                         .       X             ",
"                                                                                                        .                     . ",
"    . .                 .                                                                                   .                   ",
"                                                                                                                              . ",
"                                                                                                                                ",
"                                                                                                                                ",
"                                      .                                                                                         ",
"                                                          .                                                                     ",
"                              .                                                                                                 "
};
