/* XPM */
static char *_7a9b8e65019491cac747bead0224f962m6k0PQWy73pAnKE[] = {
/* columns rows colors chars-per-pixel */
"64 64 204 2 ",
"   c #010101",
".  c #0A0107",
"X  c #000B00",
"o  c #07060A",
"O  c #0A0409",
"+  c #050908",
"@  c #0C0E09",
"#  c #011301",
"$  c #091504",
"%  c #011B02",
"&  c #091B05",
"*  c #07140A",
"=  c #091509",
"-  c #051C09",
";  c #0B1C0C",
":  c #101B0C",
">  c #081C10",
",  c #131D12",
"<  c #012301",
"1  c #092305",
"2  c #012B02",
"3  c #092D06",
"4  c #05230B",
"5  c #0B250B",
"6  c #052B0A",
"7  c #0B2B0C",
"8  c #12230E",
"9  c #122B0E",
"0  c #023303",
"q  c #0A3306",
"w  c #023A03",
"e  c #0D3B05",
"r  c #05330C",
"t  c #0B340B",
"y  c #053B0A",
"u  c #0C3B0C",
"i  c #11350C",
"p  c #123C0E",
"a  c #0D2411",
"s  c #0D2B12",
"d  c #132413",
"f  c #192515",
"g  c #132B13",
"h  c #192B14",
"j  c #1C2719",
"k  c #142C19",
"l  c #1A2D1A",
"z  c #15251A",
"x  c #063610",
"c  c #0C3412",
"v  c #0D3D12",
"b  c #133314",
"n  c #1B3215",
"m  c #143C14",
"M  c #193D16",
"N  c #15331A",
"B  c #1C341C",
"V  c #163C1A",
"C  c #1A3C1B",
"Z  c #21301D",
"A  c #203D1D",
"S  c #1C2E22",
"D  c #1E3220",
"F  c #1E3C23",
"G  c #243621",
"H  c #233C22",
"J  c #293A27",
"K  c #29392E",
"L  c #243429",
"P  c #024203",
"I  c #0A4407",
"U  c #014802",
"Y  c #07400C",
"T  c #0B430C",
"R  c #034A0A",
"E  c #0D4B0D",
"W  c #12410D",
"Q  c #11480E",
"!  c #0C510E",
"~  c #12510B",
"^  c #0D4312",
"/  c #0E4C13",
"(  c #0F4E19",
")  c #144414",
"_  c #1A4415",
"`  c #144B14",
"'  c #194917",
"]  c #16441A",
"[  c #1C431C",
"{  c #154C19",
"}  c #1B4C1C",
"|  c #0F5517",
" . c #095914",
".. c #0F5C19",
"X. c #145215",
"o. c #185215",
"O. c #155B13",
"+. c #185915",
"@. c #17531B",
"#. c #1B531C",
"$. c #145A1C",
"%. c #1D5B1C",
"&. c #20461D",
"*. c #204A1E",
"=. c #22511E",
"-. c #225C1E",
";. c #106112",
":. c #156119",
">. c #1B631C",
",. c #196A1D",
"<. c #22631F",
"1. c #20681F",
"2. c #1D4423",
"3. c #1E4920",
"4. c #1E4C21",
"5. c #1E5325",
"6. c #1D5222",
"7. c #175D21",
"8. c #1D5B23",
"9. c #1F5728",
"0. c #224525",
"q. c #224322",
"w. c #294325",
"e. c #234C24",
"r. c #244229",
"t. c #2A452B",
"y. c #274B2A",
"u. c #2A4D2C",
"i. c #34442F",
"p. c #255526",
"a. c #235324",
"s. c #225C24",
"d. c #285C26",
"f. c #26522B",
"g. c #2A542A",
"h. c #255B2A",
"j. c #2B5C2C",
"k. c #305E2F",
"l. c #32522D",
"z. c #2E4E31",
"x. c #344735",
"c. c #334C33",
"v. c #3B4F36",
"b. c #374E3A",
"n. c #3E4F3F",
"m. c #2C5B32",
"M. c #2D5231",
"N. c #345333",
"B. c #345B35",
"V. c #3B5A3B",
"C. c #385739",
"Z. c #1D6123",
"A. c #1F6B21",
"S. c #1B6A28",
"D. c #246323",
"F. c #236922",
"G. c #23632B",
"H. c #29632A",
"J. c #256B2C",
"K. c #2B6B2E",
"L. c #2B732C",
"P. c #296330",
"I. c #2C6B32",
"U. c #336333",
"Y. c #396437",
"T. c #37643A",
"R. c #3B663C",
"E. c #366F3C",
"W. c #3D6B3D",
"Q. c #346B31",
"!. c #2A7231",
"~. c #337437",
"^. c #377A37",
"/. c #337A3C",
"(. c #3C783C",
"). c #34703C",
"_. c #436A3B",
"`. c #407A3D",
"'. c #41733E",
"]. c #3F6347",
"[. c #3F6846",
"{. c #3D7341",
"}. c #424740",
"|. c #425448",
" X c #456344",
".X c #426A44",
"XX c #496348",
"oX c #4C6B4C",
"OX c #407040",
"+X c #487346",
"@X c #497947",
"#X c #42754B",
"$X c #4B764E",
"%X c #4D6650",
"&X c #4E7852",
"*X c #517752",
"=X c #55785A",
"-X c #547A53",
";X c #5E7C60",
":X c #3C8A3E",
">X c #538357",
",X c #589257",
"<X c #5C8160",
"1X c #678D64",
/* pixels */
"                                                                                                                                ",
"                                                                                                                                ",
"                                                        .                                                           . .         ",
"                                                                                                  .                             ",
"                                                                                                                                ",
"      .     .                                                                                                                   ",
"                                                            .                                                                   ",
"                                                                                .                           .                   ",
"                                                                                                                        +     + ",
"                                                                                                          .           X         ",
"        +     X     .                                             .     . X                   X           .     +       .     . ",
"                      . o   O       +             +     +       . .     .   .             X     X X   .     .     +       .   . ",
"      +           +     .                 +                   X             O                             .           o     O O ",
"X     X X   X   X X X     X X         X       X   X   X X     X X X     X   X     X X     X X     # X X X     X X X X X         ",
"C [ u 2 r t b V B.u.0.C g b B 7 1 7 C C C 6 c 2.< M < ] ] 2.B.y.D N 7 C D < 4 m F m b < [ g.0.< ) H.H.T.j.m 2 2 2.f.T.4.v $X< b ",
"` H.} 2 2 0 ^ a.t a.% % t < 6 3 2 M d.y 0 2 j.W.) % 2 u u a.w e.# t < < 3 6 t ) f.0 t u U.h.) < | J.$.s.o.w < < T Z./ %.0 { 2 _ ",
"T U.s.% 2 } a.{ 0 _ % 5 & % b % % t _ T u 2 } U.4.% 2 y.*.[ 6 } # b % 7 3 X < c } Y m 2 5.5._ 2 U :.@.w / @.% 6 P :.O.%.$.w % b.",
"/ ` y { # % 4.^ % p 9 5 5 C m # # % =.w 3.6 2 q x ] # t [ t # 3.< g % 0.i # # c 6.0 ) 2 r 0 < ) >.%.^ { !.y 6 s I F.~ +.!.).1 Z ",
"` X.0 ^ 0 u < 9.0 W 5 5 % F f.V < 7 s.w 2 r 6.y 0 ^ 0 c 2 m.< 4.% 7 4 y.F 7 6 c } 0 2 i 4.v < 2 -.%.2 0 I.Y s % 0 Z.@.P $./ # n ",
"E 8.P.y ^ u v v 0 } # D N 6 2 # - 4 { ) x y ) } } ^ u u v y y ) X F 4 5 3 # 5 6 a.u t t [ 0 % 2 ' 0 8.h.8.^ 4 % ) h.' 0 !.P % n ",
"< 8.8.Y ^ m f.f.` 5.X N 4 # t % # 5 4.) x 6 { y 8.y u } 5.h.{ ) # F % % 5 # % 3 e.u < i _ a.u.q =.0 0 #.s.r 5 X % a.q.v /.P 2 q ",
"2 { h.w u p.C < / } # 5 N # C V % c e.0 < c 2 Y { y m p.0 2 @.T # N 4 4 r.6 % V a.2 3 t < *.*._ w w u w s.2 X * 6 g.1 [ !.U w p ",
"' } ^ u 0 i % < ^ 0 X h D % b % X s e.p # C ) 0 w m 2 C % 3 ` < X V l % N # # t f.< < [ T 0 q m ) Y I w { < X d C B.% t $...a._ ",
"q } #.2 p n h & ' } X g - # g % # # U.d.# # a.s.Q 2 M b < 3 [ p # B # # s % # < @Xp # < H.o.u < d.H.@.` h.M X % < q # t :.R B.%X",
"% _ d.u m &.i.# t [ X & 1 % B B # b =.w B.< T #.' ) i N.B % C t X 1 1 - J 7 < V _ _ 4.2 X.O.y w W -.,XK.{ v c < I H.% 2 Z.G.#   ",
"0 2 u w e.#   # u a.< n g # & # 3 C ' _ b < W H.0 p 2.X X % [ [ % H 5 # & # t e.[ ) v < E >.y y % -.`.s.T w b % w -.2 u J.I.#   ",
") T 9.0 3.5 X g m 4.1 < s % k # < m 8.0 # r @.>.` u y.X X D 7 g.< 9 - & l # t t a.% # u ,.;.0 u ` -.@.2 E #.t < w D.2 u $.P.X   ",
"0 f.$.0 0 X X # % < % A 6 # 1 - % u ^ u # m 8.J.0 q 6 # X 5 % < # A % X 8 % % p a.2 % M >.;./ ) E P 8.< E #.% 3 Q #.# _ I.@.X X ",
"0 a.{ y [ % X * m g.i b u.% # X 6 t { < X V 8.K.I ) C X # % M g.3 w.r.X #   M q _ # % [ A.,.w m T s.9.# I ` # - _ a.X 0 G.( < X ",
"y h.{.0 } % X ; |.N.% < C % d X k C g.g.X s h.^.d.u 2.#   z *Xm # 5 D > , X C ] [.3   m A.:XW.c } ~.H.< E @.# # 9 [ % t S.h.t _ ",
"0 ) a.% C % + * Z 1 3 X 7 % j X J N.g.# X 1 Y %.e < C # X : 3 2 < X k - : X N.g.e.X # 5 P >.2 % f.r 2.< P 8.s   # y.7 m 8.o.2 0 ",
"< t U.< < %   # n # w.# 5 - +   X # 0.3 X # U.~.=.% 5 X X 5 2 2 C # 4 # *   # < e.%   g ^.F.% X m % t % T d.N X < *.5 6 p.Y } _.",
"0 m 1Xe.2.% X 8 q.< [.% # ; n.    1 T.<   X u `.oXF 2.# X A i i C.X X S K X X N B.X X # a.) < B t X 2.6 2 p.1 X w Q.% X &Xm.# B ",
"[ 2 b # c 6 n % C % g.* %   @   X 9 >Xu # x.0 ` < X N s N 3 3 M 0.X a X # X X r.-X% h t.u 2 # _ M # N % 2 g.5 3 ~ <.# X < f.% - ",
") p b # % < 5 9 XX# 6 X X X     - < #.u # i.o.%.< X % 4 % H u.X 1 # X     X 8 4 B.% 5 J } Y p i i q ;Xc # m.c r ! F.4 X # 2 s # ",
"a._ [ X < < g h G B oXX G ; +   l V d.<   X I <.2 X 8 5 4 c.s c.v.X L X     A M *.<   % X.R W p e p r.% < { 6 r E H.% # #.#.&.9 ",
"@XB.e.# u.k B X % # r.X x.,   X % x y v X % -.L.d.X c.f l X * # G X |.*   . n < } 2 X < J.L.T ) 2 =.< X % } x < T a.# X o.!.< 2 ",
"0 d.U.# s 5 ;   f   4 #   X     4 2 ^ 2 X X w L.' # Z - # # z X : X   X     g < 4.X X # |  .% ` Q '.C # # 2 2 { 0 W.G   / >.< 0.",
"% ' .X< X # d X =   5 X   #     l 6 ) t X X X.J.#.# X & a   $   8 X X X + + b r y.< X % 7.S.w w o.*.1 # X < u / < Y.8 X Q L.w g.",
"0 _ j.< 1 X S X   X k % # d   X X # y.] X # ^ ~.9.< % & l     $ h # # a     # # m.6 X < ( /.w _ ` q 9   % _ 2 ^ 0 [ X X ) ^.2 < ",
"< w f.% 1 X z * : X b.r.= =     g g 2.c X - V.^ f.< - # % ; + & v.B % *   X N 4 g.< + b m.) 5.v u V k X 1 M % #.w M # X a.H.2 c ",
"2 a.' < %   X - f   a g X ; +   = 7 ].4   # b C <X% X # X 4 & # 9 3 # #     7 9 %X  X - 3 T.XX# t =Xa + % i 2 ) u &.X & % W x 2.",
"q m T.6 # * n.X ; X X # X ;     9 s s %   # + 7 V.b X g 2.- # X # # # * +   Z 9 f X X * # 9 & % # d X # < e.u @.^ 2.% ; X  Xs X ",
"2 _ ] % N # Z 5 h X # D # X X   # < # # X   - X % % ; 1 N 4 4 # % b X +     % 1 + X X   # % 1 9 X % ; X < d.#.Y w f.% # # % X & ",
"< a.2.* 9 X g X % X % N % # +   X 5 4 X ;   % 9 2 < 1 % 4 % X # % C # =     % % % + - X 1 3 < M # X - 4 6 W.$X# < 0.X a % # 1 7 ",
"t [.r < 5 X l # # # X 1 N 5 + X B y.X X s % X M u 2 % % a # * # X 9 g , o   i.g X # a # # e.r # 3 C a # u } 2 % X C.# 5 a % b q ",
"# 2.[.2 N X   & N # X D F X X   N z.%   5 6 3 u 8.0 t X X ; ,   X y.5 X   X 0.[ # X 5 r t ) } 0 2 [ 5 < v ) # % X # % g k % q p ",
"# C C.N N # h # 4 % # H l X X   % 5 8 * % 3 g.#.G./ 6 % d = , # X c.1   +   s < s # 6 x 6.h.h.Y < } b X w _ X % & 5 X b a < 2 e ",
"# 5 % a g # B X % # * - a   X X & % 5 1 < < 6 m.>Xr 2 * B # X - % 5 %   X   a # s % 6 2 r #X#Xu % j.M < 2 t # < 1 9 # &.N % < < ",
"# 5 J a l X S ; X * = # = + > X * 8 d % % a s V r.4 4 % g & X = $ = = * ; X 5 - l # % 5 c C V c m oX7 b N.XX# 5 9 i 5 w.B h g N ",
"  X   X     X     X         +       +     X   X X X X                   +           X X   X X X X     X X   X                   ",
"                                .       X                     . .   .                                           .   .     .     ",
"    X                         . .   .                         .     . . . o   .       .           X   +         .     X     . . ",
"                      .             .                                     X .     . .                   X . o     .     o   .   ",
"      .     . .           .                                     +                                                               ",
"X   .     .     .       .                                 +                                                                     ",
"                                                                                                                                ",
"                                                                                                                                ",
"                                                                        .                                                       ",
"    .                               . .     .   .     .     . .       .                     . .                                 ",
"                                      .   .       . .             .                     . .                                     ",
"                                                              .                                                                 ",
"                                                                                                                    .           ",
"                                                                                                                        .       "
};
