/* XPM */
static char *_17dc30a8c474a12a1a398889ab7afa8vl3bJqYkqxbrzNTN[] = {
/* columns rows colors chars-per-pixel */
"64 64 205 2 ",
"   c #010101",
".  c #080000",
"X  c #030B03",
"o  c #090A06",
"O  c #050309",
"+  c #0A0708",
"@  c #060E08",
"#  c #0A0E09",
"$  c #041303",
"%  c #0A1207",
"&  c #041B03",
"*  c #091C06",
"=  c #051209",
"-  c #0B130C",
";  c #071B0A",
":  c #0B1C0C",
">  c #10120F",
",  c #101B0B",
"<  c #0F1611",
"1  c #0E1911",
"2  c #121712",
"3  c #131B14",
"4  c #181D17",
"5  c #161E19",
"6  c #191E1A",
"7  c #072304",
"8  c #0A2305",
"9  c #0B2B07",
"0  c #052208",
"q  c #0D230B",
"w  c #072A08",
"e  c #0C2B0B",
"r  c #11250D",
"t  c #122B0D",
"y  c #182B0E",
"u  c #063000",
"i  c #093007",
"p  c #053308",
"a  c #0D310E",
"s  c #0D3E0E",
"d  c #093A05",
"f  c #103207",
"g  c #12340D",
"h  c #19360F",
"j  c #123B0D",
"k  c #0F2510",
"l  c #0E2912",
"z  c #132313",
"x  c #192517",
"c  c #162D16",
"v  c #132C12",
"b  c #192E16",
"n  c #17231A",
"m  c #1A2319",
"M  c #1A2619",
"N  c #1B221C",
"B  c #162C18",
"V  c #1A291A",
"C  c #1D291A",
"Z  c #192E1A",
"A  c #1E2A1D",
"S  c #1D2D1D",
"D  c #1B2D1B",
"F  c #0C3E10",
"G  c #143513",
"H  c #1C3316",
"J  c #1A3315",
"K  c #143B14",
"L  c #1A3C16",
"P  c #163218",
"I  c #1D321B",
"U  c #1F321C",
"Y  c #1D341D",
"T  c #1B331A",
"R  c #163C18",
"E  c #1C3C1B",
"W  c #212D1E",
"Q  c #202B1E",
"!  c #213017",
"~  c #22351E",
"^  c #233C1D",
"/  c #213D1E",
"(  c #1E2520",
")  c #1F2923",
"_  c #1F3621",
"`  c #1F3D21",
"'  c #212721",
"]  c #212D21",
"[  c #222A24",
"{  c #243423",
"}  c #253A24",
"|  c #233B22",
" . c #293D26",
".. c #2B342B",
"X. c #2A392A",
"o. c #2B3B2B",
"O. c #044600",
"+. c #0B490F",
"@. c #14400F",
"#. c #0C5405",
"$. c #0E4911",
"%. c #164314",
"&. c #1A4517",
"*. c #154915",
"=. c #194E15",
"-. c #164219",
";. c #1C431B",
":. c #174A19",
">. c #1B4C1B",
",. c #1A5315",
"<. c #1D541B",
"1. c #1C5B1C",
"2. c #175C16",
"3. c #23431F",
"4. c #224E1F",
"5. c #21551E",
"6. c #225A1D",
"7. c #16610F",
"8. c #1F661A",
"9. c #1D691B",
"0. c #1D751C",
"q. c #23621D",
"w. c #236B1C",
"e. c #1F4C22",
"r. c #1D5023",
"t. c #1D5A21",
"y. c #244423",
"u. c #2A4526",
"i. c #234C23",
"p. c #264029",
"a. c #2B422A",
"s. c #264E28",
"d. c #2B4A2A",
"f. c #324B2C",
"g. c #31452E",
"h. c #235423",
"j. c #245923",
"k. c #295B23",
"l. c #2C542A",
"z. c #255D28",
"x. c #2B5C2B",
"c. c #32592E",
"v. c #304530",
"b. c #334C32",
"n. c #384C37",
"m. c #3C4F3B",
"M. c #335234",
"N. c #335931",
"B. c #385E36",
"V. c #385338",
"C. c #3C5D3B",
"Z. c #246323",
"A. c #2A6625",
"S. c #266A22",
"D. c #2A6C25",
"F. c #2A642C",
"G. c #2A6B2B",
"H. c #26612B",
"J. c #316D2C",
"K. c #32662E",
"L. c #2C7226",
"P. c #2C7C25",
"I. c #2D732C",
"U. c #2E7B2A",
"Y. c #31742D",
"T. c #327B2E",
"R. c #2C6131",
"E. c #346332",
"W. c #336B33",
"Q. c #357432",
"!. c #397335",
"~. c #347B32",
"^. c #397B35",
"/. c #3C7C3A",
"(. c #417D3C",
"). c #487446",
"_. c #4F754D",
"`. c #4B7D47",
"'. c #5A7B59",
"]. c #2E822B",
"[. c #33832E",
"{. c #368233",
"}. c #398334",
"|. c #358B33",
" X c #3B8A36",
".X c #378438",
"XX c #3C833A",
"oX c #3D8B3A",
"OX c #3B9139",
"+X c #418A3D",
"@X c #43833D",
"#X c #40913D",
"$X c #3F8640",
"%X c #438441",
"&X c #448C43",
"*X c #4C8048",
"=X c #4D8C49",
"-X c #538D4E",
";X c #459445",
":X c #4A9649",
">X c #4B9A4A",
",X c #489343",
"<X c #598856",
"1X c #4FA14C",
"2X c #52A452",
/* pixels */
"                                                                          O                                               O     ",
"                                        O                                                                                       ",
"                                                                                                                              O ",
"                                                                        O                                               O       ",
"                                                                                                                            O   ",
"                                        O                                                                                 .     ",
"                                .     .                                                                     O                   ",
"                      .                                                                                                         ",
"                                                                                          O       O                             ",
"                          . .       .                                                                 O   O                     ",
"                                  .   O O   O                                     O O   O   O       .       .                   ",
"                            .             O .                                         O .       O       .                       ",
"@ X X                                 O   O o                                         O     O o .         .       X   X         ",
"=             X     =   X     X       @ X         X                     X         X                     X   X                   ",
"- ] A X % m , ] $ W { = X z o.: z - - z ] V % V $ X X                   X = : C C { x W Q Q C C o.$ X X Z z z C $ X $ X * - - % ",
"1 m z X @ ' : ..: ] = S $ : o., { & q k Y Z $ v $ X X       O           - $ : r x ~ r ~ U b r z : & x 8 { z z { $ X X X - - : : ",
"m z : = X : : z : z $ : : X $ q B & q c Y P v c : $           O         = z S ~ J ^ J 7 * $ 8 $ X $ I & & & B } : z $ $ z m z $ ",
"..] N n = 1 z z z z & * k k _ q l & k v P c c T q = X X     O   O       X : z c ^ 3.^ H 7 $ e & * $ v t q & & B z A - z x ] V 3 ",
"V x 3 : : l V S x q v r B v } q q 0 B l l v P | l 1 $ X X   O O O O   X $ : Z H y 9 t H t * y q b & v t I q & : $ q $ : Z ..} V ",
"o...{ B z B ) _ b : b ! J & z v 0 $ P B 0 l P p.B v : - X O O O O       z ~ a.a.J t H d.y 7 J r b b | & I q q q z Z : V X.g.X.Z ",
"S S T ) ; ) o.b.Z q * q  .e { | Y l l ` B l P c _ z 1 :         O O   X x B c G u.^ ! h r y u.~ J $ | q * * | | Z r k U U Z q : ",
"z B z z z B B P b b q * v $ q q e $ _ _ _ p.B ` _ T z 1 @ O   O       : { | | | h 9 & * G $ t H q 8 q q & * U b g.Z : : U { n.V.",
"S S T S & k T Y I b v t J & v t c ` l G P 0 P w |  .) m # O O O O O @ ) v.a.u./ L 7 7 t e t H & G & H e / J a./ q * q Z  .J a.U ",
"y.y.p.| ` ` R a 9 G / L y.t / | c e.b.e.P E P P y.a.| U : X O O   X 1 | b.d.y.3.3.G 3.f.u.G T e H y.T | / P / P E P y.M.d.G b.T ",
"e.e.e.e.-.G s.i.K R K L ;.3.y.-.K K R K E R R E ` ` e.| v $   + O   1 y.i.u.i.h f E / g L 9 w G T E i.G e.` e.e.i.-.p r.e.e.e.e.",
"R.R.R.R.F s h.*.*.&.*.&.%.K j %.K %.-.R -.*.-.-.e.y.4.i.E &   O     T l.x.>.&.3.c.@.i i j i K i.;.-.l.-.y.e.e.r.R.r.$.W.t.z.t.r.",
"t.t.r.t.$.<.W.<.6.5.h.j.j.h.5.,.>.>.>.>.:.>.:.:.i.4.5.5.x.e X     = d.E.A.5.>.i.3.@.&.5.x.>.%.>.h.h.E.>.z.z.z.t.H.r.+.G.H.R.R.F.",
"S.G.G.G.1.I.%XZ.G.G.A.G.A.6.,.,.<.1.1.1.1.r.t.r.4.5.<.<.K.K $   X q E.!.6.A.k.>.d 4.5.5.k.>.<.x.z.z.W.h.F.R.R.R.Q.I.1./.I.I.I.I.",
"$X$X.X{.~.>X+X.X~.L.L.&XQ.D.^.J.Q.A./.I.I.Z.Z.Z.K.A.J.A.A.).e   X m.<X(.D.q.5.=.J.A.J.(.-XQ./.!.!.!.=X%XQ.I.$X$X$XU.~..X$X.X$X$X",
"2X2X>X;X$XT.#X X+X{.T.}.@XT.+X}..X~.XXT.~.~.~.~.A.A.w.w.J.`.B.X X '.(.T.7.w.Y.@X(.(.(.-X@XD.Q.^.~.~.XX~.$X~.:X;X;X$XOX>X2X>X2X1X",
"OX|.].].].#X1XP.[. X XP. XT.+X[.oXU.T.w.9.~.9.I.A.w.w.w.O.6.C.$ & _.,.#.P.P.L.Y.L.w.D.^.T.q.T.T..XL.T.L..XU.>X$X].|.0.|.OX].OX|.",
"OX[.].U.|.;X}.oX{.+X}.w.T.w.~.L..XD.D.2.G..X2.S.A.A.w.q.6.5.^   & c.6.(.L.L.J.D.^.Y.Q.&XD.2.Y.^./.G.I.S.~.U.$X.XT.$X9.oX.X].OX].",
"5.,.5.,.5.K.,.>.5.h.1.h.*.*.*.*.E.h.:.:.:.:.>.=.>.&.@.f f h 7   & L %.9 &.@.j %.4.&.>.R.>.%.>.x.h.%.>.s k.r.h.E.h.=.,.5.6.6.6.5.",
"&.&.3.3.j L l.&.K K K K K G G K y.K a g K G G K e 9 9 9 y y & $ $ y H g 9 9 y L e e a E G e G E e w a a G G K -.&.h g E g g g g ",
"h h G j t g y.L g t G l l t v t P e 9 y q q r q 9 q r r ! ,     X 7 t ! H v * & e e l ` 7 e G G 7 e 0 e a P Y R G 9 9 g g g h g ",
"t f t g t / e e 8 8 q e q q z v r * , t , , * : r v ! ~ X X X     $ r { } | J $ & $ & l & l I k Y _ * & $ e c q q 8 * e 8 8 8 8 ",
"t r q q & z q & 0 * ; $ z k 1 = z X o $ %   X % , : - %   X       X o % - , z z X $ $ $ : $ X ; ; ; ; ; = ; $ k & * & * * 8 q * ",
"r r r , & 3 z $ : = $ $ X @ = 1 3 X - # X   - n 2 > % o     .       @ # o % - > - < = = = X X = = = = @ = = : = $ % % $ % % & % ",
"3 , , X X : : $ = $ X X < 3 6 ( @ @ 5 % < 5 [ [ - # X X . . .       # + > 4 Q ' 2 2 1 1 1 X   X X @ X X @ X = = % = $ $ 3 z r 4 ",
"3 3 %   X % %   @ X X @ 3 < - @   @ N - o 3 3 o # + X     . . X .   # + + > 2 4 5 3 5 3 5 @   O   X   X   X X X X X X X > , - > ",
"% X   X X X - > [ ' 4 < # # - - - 3 ..' 6 2 2 # X         X             o 2 6 6 6 6 6 n 3 3 < X     o X X   X X X   X X   X X X ",
"4 % X X o > 6 Q X X       o   X   3 ..N 2 # o O X X X             X # 4 6 6 6 6 # < = < < < < 3 3 X o     X     X X X   X X X X ",
"  X 2 4 Q m > o X % - > 3 2 2 2 ' N N 2 @ @ X   X     X     X X     # 4 - - - 1 3 1 1 1 < = : : [ 5 m @ X   X X     X X X X X o ",
"  @ X   - - o X   X - - - # # # 3     -   X   X   X     X                   X @ = X @ @ = @ % = X   2 = X X   X X   X     X X . ",
"o X X   X o % o @ X X X < o 1 + <     o X   O X   X                             @ X X X X $ X X % X 1 @   X X   X         X   X ",
"2 - o - > > 2 , - - > > 2 # 6 < # X o X X X X     X   X X X   X   X X   < 1 < < X X @ $ X X X X =   - X X X   X     X X     X   ",
"X         X X X     X     O X   <   X o X                           X   N N N N X $ X X @ X X X X   @     X X X X       X       ",
"- = X # - - - - # # % - X   <   # X X @                                 6 6 5 5 1 X $ X X X X X     $   X X X   X X X       X   ",
": : 2 < - 3 n ) ( N 2 < O O X X X X O X                             X   2 6 N n x q : q : : : : : : q : : : : : ; - ; : ; = X X ",
"  X X   = 1 n ) [ N - X   X X                                           - 4 6 3 z : : : : : * : : & : = : : ; : : ; - ; z 3 : ; ",
"X X X         X       X                                         X           X   X     X     X     X X   X                       ",
"                O                                                                                                               ",
"                                                                    X                             X       .                     ",
"    .                                                                                                       O             O   O ",
"    .     .                                                                                             O   O   O     O O O O O ",
"        .     .                                                                             O     O O     O   O   O O       O   ",
"                                                                                                            O     O O     O     ",
"                                                                                                                                ",
"                                                                    O                                 O                   O     ",
"                                                                                                                                ",
"                                                                                      .                       O                 ",
"                                                                                                . O                             ",
"                                                                  O       O                   O                         O       ",
"                                                                                    O                             O             "
};
