/* XPM */
static char *xpm_[] = {
/* columns rows colors chars-per-pixel */
"64 64 251 2 ",
"   c #010001",
".  c #0B0101",
"X  c #030A04",
"o  c #040308",
"O  c #0C0309",
"+  c #0B0A0A",
"@  c #080B08",
"#  c #140101",
"$  c #1C0101",
"%  c #120A06",
"&  c #120409",
"*  c #1C0409",
"=  c #130B0C",
"-  c #1B0D07",
";  c #180A11",
":  c #171714",
">  c #0D110E",
",  c #230101",
"<  c #2C0202",
"1  c #220A04",
"2  c #2C0A03",
"3  c #22040A",
"4  c #2B020A",
"5  c #220E0B",
"6  c #2D0E0A",
"7  c #330202",
"8  c #3C0201",
"9  c #340409",
"0  c #3B030A",
"q  c #390B08",
"w  c #2D110D",
"e  c #2A140A",
"r  c #35150D",
"t  c #3C0D12",
"y  c #281714",
"u  c #391715",
"i  c #240E10",
"p  c #29211E",
"a  c #36231D",
"s  c #1F1E23",
"d  c #2F2A2A",
"f  c #440100",
"g  c #4B0100",
"h  c #420907",
"j  c #460A05",
"k  c #530200",
"l  c #5B0300",
"z  c #540B00",
"x  c #5A0900",
"c  c #46130B",
"v  c #5D1101",
"b  c #55140C",
"n  c #490912",
"m  c #441814",
"M  c #54181B",
"N  c #5D0D18",
"B  c #640200",
"V  c #6C0200",
"C  c #640C01",
"Z  c #6B0B01",
"A  c #660B0B",
"S  c #730200",
"D  c #7B0200",
"F  c #740A00",
"G  c #7B0C00",
"H  c #691202",
"J  c #6D1B03",
"K  c #651709",
"L  c #741400",
"P  c #791600",
"I  c #7C1B00",
"U  c #731808",
"Y  c #741B14",
"T  c #671A15",
"R  c #562218",
"E  c #45241B",
"W  c #7A2502",
"Q  c #792514",
"!  c #4E1D21",
"~  c #6F1F22",
"^  c #4F2F2C",
"/  c #722E23",
"(  c #840200",
")  c #8B0200",
"_  c #850A00",
"`  c #8C0A00",
"'  c #880709",
"]  c #930300",
"[  c #9C0301",
"{  c #940A00",
"}  c #9C0B01",
"|  c #831501",
" . c #8B1200",
".. c #8A1A03",
"X. c #841408",
"o. c #9B1501",
"O. c #951C00",
"+. c #9C1D01",
"@. c #981807",
"#. c #901412",
"$. c #A30200",
"%. c #AA0500",
"&. c #A40B00",
"*. c #AC0B00",
"=. c #A30B08",
"-. c #B20E00",
";. c #A31401",
":. c #AD1301",
">. c #A51C01",
",. c #AC1B01",
"<. c #A81A0C",
"1. c #B31400",
"2. c #B21A00",
"3. c #BD1B02",
"4. c #BB1908",
"5. c #A11A14",
"6. c #B41A10",
"7. c #8C2302",
"8. c #892609",
"9. c #982404",
"0. c #9B3207",
"q. c #973219",
"w. c #8F2912",
"e. c #AD2202",
"r. c #A72606",
"t. c #B42100",
"y. c #BB2401",
"u. c #BE2A02",
"i. c #B3240A",
"p. c #BB240B",
"a. c #B42B0D",
"s. c #B52B04",
"d. c #A7360C",
"f. c #BB3202",
"g. c #B83806",
"h. c #AA2616",
"j. c #BC2513",
"k. c #BC2A15",
"l. c #A63C12",
"z. c #BD3A16",
"x. c #902920",
"c. c #B63926",
"v. c #C41B02",
"b. c #C32602",
"n. c #C72A07",
"m. c #D22F0E",
"M. c #C53309",
"N. c #C93506",
"B. c #D6380A",
"V. c #C32C14",
"C. c #C43113",
"Z. c #CC3A1C",
"A. c #CA3718",
"S. c #D63917",
"D. c #D12414",
"F. c #C63921",
"G. c #D63624",
"H. c #EC3622",
"J. c #9F4314",
"K. c #B64418",
"L. c #AD450F",
"P. c #904029",
"I. c #BE4825",
"U. c #B45428",
"Y. c #BF6D24",
"T. c #CB4507",
"R. c #D64B07",
"E. c #C84A1B",
"W. c #D14A14",
"Q. c #D7491A",
"!. c #D6561B",
"~. c #D15707",
"^. c #E5481A",
"/. c #EC5414",
"(. c #E95F1E",
"). c #E44C0A",
"_. c #DD601E",
"`. c #C44321",
"'. c #C94B22",
"]. c #CB4829",
"[. c #D44225",
"{. c #D64A21",
"}. c #DA4728",
"|. c #C95427",
" X c #D75528",
".X c #DB5C32",
"XX c #D24E35",
"oX c #E14925",
"OX c #E64B2C",
"+X c #EB4A26",
"@X c #E2552A",
"#X c #E95627",
"$X c #F35924",
"%X c #E65736",
"&X c #F25B37",
"*X c #CD652C",
"=X c #D86A2A",
"-X c #D8663A",
";X c #D26F30",
":X c #E76629",
">X c #F86625",
",X c #F8762A",
"<X c #E96736",
"1X c #F86838",
"2X c #E97739",
"3X c #FB7234",
"4X c #FB743C",
"5X c #FE7B3E",
"6X c #F77938",
"7X c #EA742C",
"8X c #DA5141",
"9X c #D26742",
"0X c #EB6C44",
"qX c #E96643",
"wX c #FA6D41",
"eX c #F76943",
"rX c #E77643",
"tX c #FD7444",
"yX c #FE7B45",
"uX c #FD794A",
"iX c #F37344",
"pX c #FD7A53",
"aX c #E77551",
"sX c #E8813D",
"dX c #FC843D",
"fX c #F88737",
"gX c #FE953B",
"hX c #FF983F",
"jX c #ED802B",
"kX c #DF8B42",
"lX c #FF8341",
"zX c #FC814B",
"xX c #FF8C4C",
"cX c #F78745",
"vX c #FF9342",
"bX c #FF9647",
"nX c #FD8352",
"mX c #FF8C53",
"MX c #FC865A",
"NX c #F8885A",
"BX c #FF9B53",
"VX c #FF9559",
"CX c #FFA44B",
"ZX c #FFA75A",
"AX c #FF8B61",
"SX c #FF9A66",
"DX c #FA9671",
"FX c #FEA965",
"GX c #FFB563",
"HX c #FFA876",
"JX c #FFAE89",
/* pixels */
"                o     X         . . o o           . o o o     X                   o o o                                         ",
"                  o o : s : X   .   o o       X   O O o o     X                   o o o                                         ",
"                o   + X o : p : o o o     X X     O O = .   X X                         X X                                     ",
"                  O     X   p d s o . .     X X   & = ; =   X X     .   o o               X                                     ",
"                O   o     . . y d : %   . .   . O O O = & # % X X   . . o o o             X .                                   ",
"                      + O . 5 5 # y y 5 . . # i & & = = * * # .             o             O & .                                 ",
"                O       = i i ^ r 6 m ^ - . 1 2 r 5 y y 5 w 3 # . .                     O ; * . .                               ",
"                  o @     % # $ # c R c 6 # q q E e e - 1 w , $ # . . . . . . . . .   . * 3 3 # # .                             ",
"                  + > X     . # $ R / 7 m 2 n M 6 - e r , 2 $ * $ 3 a # # # . # , 6 # # , t 9 < 1 .                             ",
"                o o @ > @ . # $ , b P.J b 8 f N q , u u < 7 < , , , < , , # $ $ q j , 2 h 8 j c 4 # . .                         ",
"                o o X @ > - $ $ < K U.U.8.f A A k b 0 ! M 8 n 0 0 0 7 8 7 , , 7 K H f 7 z k Q K 7 $ # .                         ",
"                o o X @ : y y 7 b J *X=XL.| | X.G Y b M ~ l k T g g x v 8 7 7 f q...x J W Z w.J 7 , # .                         ",
"                o     + = - u M C G 2X,X!.s.r.E.I.8.v T x.w.F F B V q.q.f f C P d.+.F 0.7.7.d.P 8 , $ #                         ",
"                      X . # u b 8.z.W.R.>X5XlX5X XG x H 9.a.`.z.].`.K.7.k x G 9.Q.T. XuXzX X.X8.8 , $ #                         ",
"                  o     . $ u g K.!.n.m.n.f.f.2X9XB C V E.(.>XyX1X#X:X9.B B ` [.Q.3XmX1X#XW.XX..8 , $ #                         ",
"                      . # $ t g rX:X1.4.] {  .nXc.B V | nXR.N./.&.&.3Xg.V V >.wX$X/.3.&.t.@XF.V 8 , $ .                         ",
"                o       . , t z |.4X{.k.( D  .NXc.D V h.AXt.;.;.,.} tXK.S V z.mXN.v.&.1.C.%X .H 7 , # .                         ",
"                          $ 9 g 0.iXwXi.( D ..MXc.D S c.pX;.] { ] { iX'.S S :X:XS.n.[ Z.t.%XG Q 7 $ .                           ",
"                    o X . $ 9 f L 0XpX;.` D O.nX XD D XXeX} ( ( ( ) <X`.S F =X,XOX%.:.i.t.<X..Y 8 $ .                           ",
"                    o o . $ 9 f l -XiXe.@.D >.iXzXO.( }.%X{ ) ( D )  Xz.D G =XBXy.[ 6.] !.iXG A c $ . .     o                   ",
"                    X X . $ 4 f k *X<X!.r.( 2.#XxXr.] }.}.] ( ' D ( [.z.D ..BX7X] $.=.] 6X*XS A t $ .       o                   ",
"                        . # < 8 k U.:X:Xo.( 1.B.dXf.] OXG.{ ( ( D ( {.f.D d.FXg.{ ] [ { zXL.Z x 7 # .                           ",
"                          # , 8 k l.7X:X` ) %.3.>XR.:.oXj.[ { ( D ( {.N.)  XxXe.] { ] o.SXJ.g f , # .                           ",
"                          . $ 8 g 7.fX:X{ ) $.-././.n.S.*.] h.] D ( T.R.o.4X3X,.} ) ) h.JXW k 8 , $ .                           ",
"                          . $ 7 g L dX!.) ) [ *.).>X$Xm.[ ) j.6.( ] N.>Xf.lX#Xy.{ D ( XXJXC g 7 , # .                           ",
"                          . # < f L cX_.{ ( ) &.B.3X5Xu.] ) j.C.] ;.b.5XR.5X#Xb.) D _ aXDXC g 7 , # .                           ",
"                  o         # < 8 C 2X:Xo.( ( { y.5XBXf.` ( e.[.*.1.2.zX,X,X^.4.( S | DX9XC f 7 $ # .                           ",
"                  o         # , 8 k ;X6X>.( _ ` ,.5XBXf.) ` >.1XV.*.1.tXvX,XS.1.( S d.HXq.C f 7 $ # .                           ",
"                            . $ q g U.zXe.) _  .>.4XxXf.{ o.g.MXS.*.1.1XCXfXM.&.( D ;XFXI l f 7 $ # .                           ",
"                            . $ 7 k l.uXn.[ D  .>.5XxXf.;.>. XVXS.*.:.:XZXsXs.[ ) O.ZXkXL k f 7 $ # O                           ",
"                            . $ < k d.wXm.&.(  .>.yXlXb.2.,.2XxX@X*.:.@XGXsXi.$.] E.GX;XZ k f 7 $ # .                           ",
"                            . $ 7 k d.wXm.*.{ { e.uX3Xb.1.,.dXvX<X[ :.W.GXsX<.[ &.1XZXY.l k f < # .                             ",
"                            . $ 7 g 9.iXm.1.;.;.V.eX1Xb.4.y.gXhX.X} :.N.CXfXi.&.S. XSXU.k f 8 < # .                             ",
"                            . # 7 g P 0Xm.v.p.&.F.Z.&Xb.-.p.gXgX X} &.M.CXjXa.:.u.Q.HXw.v f 8 , #                               ",
"                            . # 4 f B ].B.B.j.] k.} Z.1.%.C.vXvXQ.&.[ C.VX!.<.} &.{.HXL U f 7 , .                               ",
"                            . # , 8 l +.Q.^.:.) o.) ;.&.&.A.dXvXoX*.] k.tXs.{ ) } 1XAXL Q f < $ .                               ",
"                            . . $ 7 k G {.$X&.} ) ( ( { [ }.7XlX@X&.) c.].{ ( ( ;.mX-X| U f < # .                               ",
"                              . $ < g |  X#X:.<.( D D ) ) %X!.yX@X} ( h.5.( ( ` e.ZX'.| l 8 < # .                               ",
"                              . # < f L  X&Xp.&.( S D ( ` 0Xf.wX&X{ D #.D D ( O.~.CXE.G k 8 , # .                               ",
"                              . # , f l |.1Xn.{ D S D ` +.iX;.%XeX{ _ X.V S ( o.,XhX|.V k 8 , # .                               ",
"                            . . . $ f l '.4XQ.) D S #.5.].%X} }.1Xo._ D B S ] Q.fXbX'.B k 7 $ &                                 ",
"                            . . . w 8 l |.1XA.` G S ' @.pXE.` [.tX;.{ ( S D ;.uX~.BX9.B f < 3 &                                 ",
"                            . . . , 7 x '.yXZ.) D D ( o.AXr.( i.nXy.:.;.( ( OX^.T.VXF x 8 , 3 .                                 ",
"                            . . $ $ 7 k 0.mXA.) D D ( i.nXO.( ) tXN.n.4.` h.&X1.:X2XC g 7 , $ .                                 ",
"                            . . $ < 7 f 7.VX'.` _ D ) C.nX .D D @XB.+Xb.} C.+Xb.mXl.x 8 < $ # .                                 ",
"                            . . # , < j I MX0X_ D ( { [.zX9.S D z.<X1X3.:.oX^.W.SXI g 7 , $ # .                                 ",
"                              . $ , 7 z F -XSX_ S ` } }.yX9.V V | uX&X*.u.1Xy.3XmXC f 9 $ . . .                                 ",
"                              . # $ 7 g B I.HXd._ ( :.S.yXO.G B S 0X&X*.^.N.u.dXrXx f , # . .                                   ",
"                                # $ 9 f B l.cXxX>.] *.m.wX` V B D %XoX-.b.&.).vX*Xz 7 $ & .   .                                 ",
"                                # # 4 f l | !.1XwX-.%.n.qXD B B D qXoX*.%.B.>X3XK.k 8 $ & .                                     ",
"                                . * 4 8 l  .V.b.H.H.v.Z.9.V k k S 8X}.1.S.+Xb.%X..k 8 , # .                                     ",
"                                . & , 7 g S <.4.D.G.G.@.F k g k V c.XX@XOXC.a.+.V g 7 $ # .                                     ",
"                                O . # , 8 g S #.o.<.S B g 8 8 8 k U 7...S F F B g 8 , # . .   o                                 ",
"                                O & # $ < 8 g k l l k f 8 9 , < 8 k g x g f g f 0 4 $ . .     o                                 ",
"                                  O . # $ , < h 8 8 7 < 4 # # # , , 7 7 7 7 < 7 4 * # . .                                       ",
"                                    . # # * $ , , , , , # # O . . # $ e $ # 3 * * & # .                                         ",
"                                    . . # # # # # # # # # .       . . . . . # & # # . . .                                       ",
"                                      . . . O     . . . .           O o     O O . . .                                           ",
"                                            o             o         o o                                                         ",
"                                          o o o         o o       o o o     o                                                   ",
"                                          o o o         o o         o o     o o                                                 ",
"                                          o o o                     o o                                                         ",
"                                          o o                       o o               o o o                                     ",
"                                        o o                         o o             o o o o                                     "
};
